<svg width="314" height="126" viewBox="0 0 314 126" fill="none" xmlns="http://www.w3.org/2000/svg">
<path fill-rule="evenodd" clip-rule="evenodd" d="M295.87 82.4603C303.478 76.4045 307.587 69.8249 307.587 63C307.587 56.1751 303.478 49.5955 295.87 43.5397C288.266 37.488 277.232 32.0161 263.554 27.4114C236.202 18.2038 198.383 12.5 156.587 12.5C114.79 12.5 76.9715 18.2038 49.6194 27.4114C35.9408 32.0161 24.9072 37.488 17.3035 43.5397C9.69475 49.5955 5.58655 56.1751 5.58655 63C5.58655 69.8249 9.69475 76.4045 17.3035 82.4603C24.9072 88.512 35.9408 93.9839 49.6194 98.5886C76.9715 107.796 114.79 113.5 156.587 113.5C198.383 113.5 236.202 107.796 263.554 98.5886C277.232 93.9839 288.266 88.512 295.87 82.4603ZM156.587 114C240.258 114 308.087 91.1665 308.087 63C308.087 34.8335 240.258 12 156.587 12C72.9154 12 5.08655 34.8335 5.08655 63C5.08655 91.1665 72.9154 114 156.587 114Z" fill="white"/>
<path fill-rule="evenodd" clip-rule="evenodd" d="M293.304 93.554C301.544 88.1777 306.35 81.997 307.088 75.2387C307.826 68.4804 304.443 61.6283 297.513 55.0082C290.587 48.3926 280.179 42.071 267.04 36.3921C240.767 25.0364 203.681 16.2959 162.013 12.8797C120.345 9.46351 82.0249 12.0219 53.7605 18.9063C39.6257 22.3492 28.0341 26.8672 19.7992 32.2398C11.5585 37.6161 6.75226 43.7968 6.01428 50.5551C5.27631 57.3134 8.65942 64.1655 15.5901 70.7856C22.516 77.4012 32.9239 83.7229 46.0627 89.4017C72.3353 100.757 109.421 109.498 151.09 112.914C192.758 116.33 231.078 113.772 259.342 106.887C273.477 103.445 285.069 98.9266 293.304 93.554ZM151.035 113.411C234.45 120.25 304.54 103.178 307.587 75.2796C310.633 47.3813 245.482 19.2214 162.067 12.3827C78.6528 5.5439 8.56234 22.616 5.51596 50.5142C2.46957 78.4125 67.6209 106.572 151.035 113.411Z" fill="white"/>
</svg>
