<svg width="243" height="112" viewBox="0 0 243 112" fill="none" xmlns="http://www.w3.org/2000/svg">
<path fill-rule="evenodd" clip-rule="evenodd" d="M229.147 73.0136C235.031 67.6858 238.216 61.8912 238.216 55.8682C238.216 49.8451 235.031 44.0505 229.147 38.7228C223.263 33.395 214.721 28.5742 204.122 24.5153C182.929 16.3988 153.618 11.3682 121.216 11.3682C88.8146 11.3682 59.503 16.3988 38.31 24.5153C27.7118 28.5742 19.1695 33.395 13.2855 38.7228C7.40159 44.0505 4.21622 49.8451 4.21622 55.8682C4.21622 61.8912 7.40159 67.6858 13.2855 73.0136C19.1695 78.3413 27.7118 83.1622 38.31 87.221C59.503 95.3375 88.8146 100.368 121.216 100.368C153.618 100.368 182.929 95.3375 204.122 87.221C214.721 83.1622 223.263 78.3413 229.147 73.0136ZM121.216 100.868C186.11 100.868 238.716 80.721 238.716 55.8682C238.716 31.0154 186.11 10.8682 121.216 10.8682C56.3228 10.8682 3.71622 31.0154 3.71622 55.8682C3.71622 80.721 56.3228 100.868 121.216 100.868Z" fill="#2B2B2B"/>
<path fill-rule="evenodd" clip-rule="evenodd" d="M227.052 83.1039C233.412 78.3541 237.129 72.8853 237.696 66.8891C238.264 60.8928 235.638 54.8239 230.282 48.9656C224.926 43.1073 216.876 37.5032 206.707 32.4641C186.373 22.3874 157.666 14.618 125.408 11.5659C93.1506 8.51377 63.4955 10.761 41.6322 16.8451C30.6988 19.8876 21.7404 23.8824 15.3807 28.6322C9.02104 33.3819 5.30399 38.8508 4.73664 44.847C4.16929 50.8433 6.79466 56.9122 12.1506 62.7705C17.5066 68.6288 25.5568 74.2329 35.7255 79.272C56.0597 89.3487 84.7671 97.118 117.025 100.17C149.282 103.222 178.937 100.975 200.801 94.891C211.734 91.8485 220.692 87.8537 227.052 83.1039ZM116.978 100.668C181.582 106.781 235.853 91.6785 238.194 66.9362C240.535 42.1938 190.06 17.1809 125.455 11.0681C60.8503 4.95537 6.57992 20.0576 4.23887 44.7999C1.89781 69.5422 52.3726 94.5552 116.978 100.668Z" fill="#2B2B2B"/>
</svg>
