<svg width="176" height="64" viewBox="0 0 176 64" fill="none" xmlns="http://www.w3.org/2000/svg">
<path d="M173.452 26.9756C173.643 30.5825 171.499 34.1873 167.349 37.622C163.204 41.053 157.098 44.279 149.47 47.125C134.217 52.8159 112.933 56.967 89.2363 58.2215C65.5395 59.4761 43.9363 57.5954 28.1675 53.5469C20.2816 51.5222 13.8692 48.959 9.38507 45.9848C4.89605 43.0074 2.38302 39.6491 2.19207 36.0423C2.00112 32.4355 4.14552 28.8306 8.29507 25.3959C12.4401 21.9649 18.5461 18.7389 26.1741 15.8929C41.4272 10.202 62.7111 6.0509 86.408 4.79636C110.105 3.54183 131.708 5.42247 147.477 9.47102C155.363 11.4957 161.775 14.059 166.259 17.0331C170.748 20.0105 173.261 23.3688 173.452 26.9756Z" stroke="#2B2B2B" stroke-width="0.5"/>
<path d="M173.685 33.4911C173.457 37.0449 170.903 40.4236 166.368 43.4858C161.839 46.5443 155.379 49.2542 147.446 51.4764C131.584 55.9199 109.891 58.3978 86.1293 57.8493C62.3676 57.3007 41.0565 53.8301 25.8117 48.6685C18.1878 46.0871 12.0948 43.0875 7.9714 39.8292C3.84298 36.567 1.73044 33.0806 1.95884 29.5268C2.18725 25.9729 4.74101 22.5943 9.27591 19.532C13.8053 16.4735 20.2652 13.7636 28.1978 11.5414C44.06 7.09791 65.7534 4.62003 89.5151 5.16857C113.277 5.71711 134.588 9.18775 149.833 14.3494C157.457 16.9307 163.55 19.9304 167.673 23.1886C171.801 26.4509 173.914 29.9373 173.685 33.4911Z" stroke="#2B2B2B" stroke-width="0.5"/>
</svg>
