<svg width="303" height="105" viewBox="0 0 303 105" fill="none" xmlns="http://www.w3.org/2000/svg">
<path fill-rule="evenodd" clip-rule="evenodd" d="M288.304 83.554C296.544 78.1777 301.35 71.997 302.088 65.2387C302.826 58.4804 299.443 51.6283 292.513 45.0082C285.587 38.3926 275.179 32.071 262.04 26.3921C235.767 15.0364 198.681 6.29589 157.013 2.8797C115.345 -0.536486 77.0249 2.0219 48.7605 8.90632C34.6257 12.3492 23.0341 16.8672 14.7992 22.2398C6.55851 27.6161 1.75226 33.7968 1.01428 40.5551C0.276308 47.3134 3.65942 54.1655 10.5901 60.7856C17.516 67.4012 27.9239 73.7229 41.0627 79.4017C67.3353 90.7574 104.421 99.4979 146.09 102.914C187.758 106.33 226.078 103.772 254.342 96.8875C268.477 93.4446 280.069 88.9266 288.304 83.554ZM146.035 103.411C229.45 110.25 299.54 93.1778 302.587 65.2796C305.633 37.3813 240.482 9.22141 157.067 2.38265C73.6528 -4.4561 3.56234 12.616 0.515957 40.5142C-2.53043 68.4125 62.6209 96.5724 146.035 103.411Z" fill="white"/>
</svg>
