<svg width="304" height="102" viewBox="0 0 304 102" fill="none" xmlns="http://www.w3.org/2000/svg">
<path fill-rule="evenodd" clip-rule="evenodd" d="M290.87 70.4603C298.478 64.4045 302.587 57.8249 302.587 51C302.587 44.1751 298.478 37.5955 290.87 31.5397C283.266 25.488 272.232 20.0161 258.554 15.4114C231.202 6.20377 193.383 0.5 151.587 0.5C109.79 0.5 71.9715 6.20377 44.6194 15.4114C30.9408 20.0161 19.9072 25.488 12.3035 31.5397C4.69475 37.5955 0.586548 44.1751 0.586548 51C0.586548 57.8249 4.69475 64.4045 12.3035 70.4603C19.9072 76.512 30.9408 81.9839 44.6194 86.5886C71.9715 95.7962 109.79 101.5 151.587 101.5C193.383 101.5 231.202 95.7962 258.554 86.5886C272.232 81.9839 283.266 76.512 290.87 70.4603ZM151.587 102C235.258 102 303.087 79.1665 303.087 51C303.087 22.8335 235.258 0 151.587 0C67.9154 0 0.0865479 22.8335 0.0865479 51C0.0865479 79.1665 67.9154 102 151.587 102Z" fill="white"/>
</svg>
