<svg width="109" height="17" viewBox="0 0 109 17" fill="none" xmlns="http://www.w3.org/2000/svg">
<path d="M7.86412 6.3559V7.3198H7V8.4979H7.86412V12H9.64038V8.4979H10.832C10.832 8.4979 10.9443 7.933 10.9983 7.3149H9.64724V6.5099C9.64724 6.3888 9.84098 6.2271 10.033 6.2271H11V5H9.6841C7.8204 5 7.86412 6.1795 7.86412 6.3559Z" fill="#222222"/>
<path fill-rule="evenodd" clip-rule="evenodd" d="M4.75 1.5C2.95507 1.5 1.5 2.95507 1.5 4.75V12.25C1.5 14.0449 2.95507 15.5 4.75 15.5H12.25C14.0449 15.5 15.5 14.0449 15.5 12.25V4.75C15.5 2.95507 14.0449 1.5 12.25 1.5H4.75ZM0.5 4.75C0.5 2.40279 2.40279 0.5 4.75 0.5H12.25C14.5972 0.5 16.5 2.40279 16.5 4.75V12.25C16.5 14.5972 14.5972 16.5 12.25 16.5H4.75C2.40279 16.5 0.5 14.5972 0.5 12.25V4.75Z" fill="#222222"/>
<path d="M27.84 3.15604C26.556 3.15604 25.596 3.45604 24.96 4.05604C24.324 4.64404 24.006 5.49004 24.006 6.59404V8.61004H30.252V9.43804H24.006V15H23.088V6.55804C23.088 5.23804 23.49 4.20004 24.294 3.44404C25.11 2.68804 26.286 2.31004 27.822 2.31004C29.346 2.31004 30.57 2.65804 31.494 3.35404L31.116 4.11004C30.276 3.47404 29.184 3.15604 27.84 3.15604Z" fill="#2B2B2B"/>
<path d="M41.4905 5.60404V15H40.6085V12.786C40.2365 13.518 39.7145 14.082 39.0425 14.478C38.3705 14.874 37.6085 15.072 36.7565 15.072C35.8805 15.072 35.0885 14.868 34.3805 14.46C33.6725 14.052 33.1145 13.488 32.7065 12.768C32.3105 12.048 32.1125 11.226 32.1125 10.302C32.1125 9.37804 32.3105 8.55604 32.7065 7.83604C33.1145 7.10404 33.6725 6.54004 34.3805 6.14404C35.0885 5.73604 35.8805 5.53204 36.7565 5.53204C37.5965 5.53204 38.3465 5.73004 39.0065 6.12604C39.6785 6.52204 40.2065 7.07404 40.5905 7.78204V5.60404H41.4905ZM36.8105 14.262C37.5305 14.262 38.1725 14.094 38.7365 13.758C39.3125 13.422 39.7625 12.954 40.0865 12.354C40.4225 11.754 40.5905 11.07 40.5905 10.302C40.5905 9.53404 40.4225 8.85004 40.0865 8.25004C39.7625 7.65004 39.3125 7.18204 38.7365 6.84604C38.1725 6.51004 37.5305 6.34204 36.8105 6.34204C36.0905 6.34204 35.4425 6.51004 34.8665 6.84604C34.3025 7.18204 33.8525 7.65004 33.5165 8.25004C33.1925 8.85004 33.0305 9.53404 33.0305 10.302C33.0305 11.07 33.1925 11.754 33.5165 12.354C33.8525 12.954 34.3025 13.422 34.8665 13.758C35.4425 14.094 36.0905 14.262 36.8105 14.262Z" fill="#2B2B2B"/>
<path d="M49.011 15.072C48.099 15.072 47.283 14.868 46.563 14.46C45.843 14.052 45.279 13.488 44.871 12.768C44.463 12.036 44.259 11.214 44.259 10.302C44.259 9.37804 44.463 8.55604 44.871 7.83604C45.279 7.10404 45.843 6.54004 46.563 6.14404C47.283 5.73604 48.099 5.53204 49.011 5.53204C49.767 5.53204 50.451 5.68204 51.063 5.98204C51.687 6.27004 52.191 6.69604 52.575 7.26004L51.909 7.74604C51.573 7.27804 51.153 6.93004 50.649 6.70204C50.157 6.46204 49.611 6.34204 49.011 6.34204C48.279 6.34204 47.619 6.51004 47.031 6.84604C46.455 7.17004 45.999 7.63204 45.663 8.23204C45.339 8.83204 45.177 9.52204 45.177 10.302C45.177 11.082 45.339 11.772 45.663 12.372C45.999 12.972 46.455 13.44 47.031 13.776C47.619 14.1 48.279 14.262 49.011 14.262C49.611 14.262 50.157 14.148 50.649 13.92C51.153 13.68 51.573 13.326 51.909 12.858L52.575 13.344C52.191 13.908 51.687 14.34 51.063 14.64C50.451 14.928 49.767 15.072 49.011 15.072Z" fill="#2B2B2B"/>
<path d="M58.9631 14.262C59.5751 14.262 60.1391 14.154 60.6551 13.938C61.1831 13.71 61.6211 13.38 61.9691 12.948L62.4911 13.542C62.0831 14.046 61.5731 14.43 60.9611 14.694C60.3491 14.946 59.6771 15.072 58.9451 15.072C58.0091 15.072 57.1691 14.868 56.4251 14.46C55.6931 14.052 55.1171 13.488 54.6971 12.768C54.2891 12.048 54.0851 11.226 54.0851 10.302C54.0851 9.37804 54.2771 8.55604 54.6611 7.83604C55.0571 7.11604 55.6031 6.55204 56.2991 6.14404C56.9951 5.73604 57.7811 5.53204 58.6571 5.53204C59.4731 5.53204 60.2051 5.72404 60.8531 6.10804C61.5131 6.48004 62.0351 7.00204 62.4191 7.67404C62.8151 8.33404 63.0311 9.07804 63.0671 9.90604L55.1291 11.454C55.3571 12.318 55.8131 13.002 56.4971 13.506C57.1811 14.01 58.0031 14.262 58.9631 14.262ZM58.6571 6.32404C57.9491 6.32404 57.3131 6.49204 56.7491 6.82804C56.1851 7.15204 55.7471 7.61404 55.4351 8.21404C55.1231 8.80204 54.9671 9.47404 54.9671 10.23C54.9671 10.362 54.9791 10.548 55.0031 10.788L62.1671 9.38404C62.0831 8.82004 61.8851 8.30404 61.5731 7.83604C61.2611 7.36804 60.8531 7.00204 60.3491 6.73804C59.8451 6.46204 59.2811 6.32404 58.6571 6.32404Z" fill="#2B2B2B"/>
<path d="M70.5674 5.53204C71.4434 5.53204 72.2354 5.73604 72.9434 6.14404C73.6514 6.54004 74.2034 7.10404 74.5994 7.83604C75.0074 8.55604 75.2114 9.37804 75.2114 10.302C75.2114 11.226 75.0074 12.048 74.5994 12.768C74.2034 13.488 73.6514 14.052 72.9434 14.46C72.2354 14.868 71.4434 15.072 70.5674 15.072C69.7274 15.072 68.9654 14.874 68.2814 14.478C67.6094 14.07 67.0874 13.506 66.7154 12.786V15H65.8514V1.64404H66.7514V7.74604C67.1234 7.05004 67.6454 6.51004 68.3174 6.12604C68.9894 5.73004 69.7394 5.53204 70.5674 5.53204ZM70.5134 14.262C71.2334 14.262 71.8814 14.094 72.4574 13.758C73.0334 13.422 73.4834 12.954 73.8074 12.354C74.1434 11.754 74.3114 11.07 74.3114 10.302C74.3114 9.53404 74.1434 8.85004 73.8074 8.25004C73.4834 7.65004 73.0334 7.18204 72.4574 6.84604C71.8814 6.51004 71.2334 6.34204 70.5134 6.34204C69.7934 6.34204 69.1454 6.51004 68.5694 6.84604C68.0054 7.18204 67.5554 7.65004 67.2194 8.25004C66.8954 8.85004 66.7334 9.53404 66.7334 10.302C66.7334 11.07 66.8954 11.754 67.2194 12.354C67.5554 12.954 68.0054 13.422 68.5694 13.758C69.1454 14.094 69.7934 14.262 70.5134 14.262Z" fill="#2B2B2B"/>
<path d="M81.6699 15.072C80.7819 15.072 79.9779 14.868 79.2579 14.46C78.5499 14.052 77.9919 13.488 77.5839 12.768C77.1759 12.036 76.9719 11.214 76.9719 10.302C76.9719 9.39004 77.1759 8.57404 77.5839 7.85404C77.9919 7.12204 78.5499 6.55204 79.2579 6.14404C79.9779 5.73604 80.7819 5.53204 81.6699 5.53204C82.5579 5.53204 83.3559 5.73604 84.0639 6.14404C84.7839 6.55204 85.3479 7.12204 85.7559 7.85404C86.1639 8.57404 86.3679 9.39004 86.3679 10.302C86.3679 11.214 86.1639 12.036 85.7559 12.768C85.3479 13.488 84.7839 14.052 84.0639 14.46C83.3559 14.868 82.5579 15.072 81.6699 15.072ZM81.6699 14.262C82.3899 14.262 83.0319 14.094 83.5959 13.758C84.1719 13.422 84.6219 12.954 84.9459 12.354C85.2819 11.754 85.4499 11.07 85.4499 10.302C85.4499 9.53404 85.2819 8.85004 84.9459 8.25004C84.6219 7.65004 84.1719 7.18204 83.5959 6.84604C83.0319 6.51004 82.3899 6.34204 81.6699 6.34204C80.9499 6.34204 80.3019 6.51004 79.7259 6.84604C79.1619 7.18204 78.7119 7.65004 78.3759 8.25004C78.0519 8.85004 77.8899 9.53404 77.8899 10.302C77.8899 11.07 78.0519 11.754 78.3759 12.354C78.7119 12.954 79.1619 13.422 79.7259 13.758C80.3019 14.094 80.9499 14.262 81.6699 14.262Z" fill="#2B2B2B"/>
<path d="M92.832 15.072C91.944 15.072 91.14 14.868 90.42 14.46C89.712 14.052 89.154 13.488 88.746 12.768C88.338 12.036 88.134 11.214 88.134 10.302C88.134 9.39004 88.338 8.57404 88.746 7.85404C89.154 7.12204 89.712 6.55204 90.42 6.14404C91.14 5.73604 91.944 5.53204 92.832 5.53204C93.72 5.53204 94.518 5.73604 95.226 6.14404C95.946 6.55204 96.51 7.12204 96.918 7.85404C97.326 8.57404 97.53 9.39004 97.53 10.302C97.53 11.214 97.326 12.036 96.918 12.768C96.51 13.488 95.946 14.052 95.226 14.46C94.518 14.868 93.72 15.072 92.832 15.072ZM92.832 14.262C93.552 14.262 94.194 14.094 94.758 13.758C95.334 13.422 95.784 12.954 96.108 12.354C96.444 11.754 96.612 11.07 96.612 10.302C96.612 9.53404 96.444 8.85004 96.108 8.25004C95.784 7.65004 95.334 7.18204 94.758 6.84604C94.194 6.51004 93.552 6.34204 92.832 6.34204C92.112 6.34204 91.464 6.51004 90.888 6.84604C90.324 7.18204 89.874 7.65004 89.538 8.25004C89.214 8.85004 89.052 9.53404 89.052 10.302C89.052 11.07 89.214 11.754 89.538 12.354C89.874 12.954 90.324 13.422 90.888 13.758C91.464 14.094 92.112 14.262 92.832 14.262Z" fill="#2B2B2B"/>
<path d="M103.67 9.97804L101.222 12.21V15H100.322V1.64404H101.222V11.094L107.234 5.60404H108.386L104.336 9.40204L108.782 15H107.666L103.67 9.97804Z" fill="#2B2B2B"/>
</svg>
