<svg width="16" height="17" viewBox="0 0 16 17" fill="none" xmlns="http://www.w3.org/2000/svg">
<path fill-rule="evenodd" clip-rule="evenodd" d="M6.73684 12.4737C9.90521 12.4737 12.4737 9.90521 12.4737 6.73684C12.4737 3.56847 9.90521 1 6.73684 1C3.56847 1 1 3.56847 1 6.73684C1 9.90521 3.56847 12.4737 6.73684 12.4737ZM6.73684 13.4737C10.4575 13.4737 13.4737 10.4575 13.4737 6.73684C13.4737 3.01619 10.4575 0 6.73684 0C3.01619 0 0 3.01619 0 6.73684C0 10.4575 3.01619 13.4737 6.73684 13.4737Z" fill="#2B2B2B"/>
<path fill-rule="evenodd" clip-rule="evenodd" d="M10.5938 11.436C10.7891 11.2407 11.1057 11.2407 11.3009 11.436L15.5115 15.6465C15.7067 15.8418 15.7067 16.1584 15.5115 16.3536C15.3162 16.5489 14.9996 16.5489 14.8044 16.3536L10.5938 12.1431C10.3986 11.9478 10.3986 11.6313 10.5938 11.436Z" fill="#2B2B2B"/>
</svg>
