<svg width="120" height="20" viewBox="0 0 120 20" fill="none" xmlns="http://www.w3.org/2000/svg">
<path d="M28.374 4.2279V15.1719H31.02V15.9999H24.81V15.1719H27.456V4.2279H24.81V3.3999H31.02V4.2279H28.374Z" fill="#2B2B2B"/>
<path d="M38.3203 6.5319C39.4963 6.5319 40.4263 6.8739 41.1103 7.5579C41.7943 8.2419 42.1363 9.2259 42.1363 10.5099V15.9999H41.2363V10.5819C41.2363 9.5259 40.9663 8.7219 40.4263 8.1699C39.8983 7.6179 39.1543 7.3419 38.1943 7.3419C37.0903 7.3419 36.2203 7.6719 35.5843 8.3319C34.9483 8.9919 34.6303 9.8799 34.6303 10.9959V15.9999H33.7303V6.6039H34.5943V8.6379C34.9183 7.9779 35.3983 7.4619 36.0343 7.0899C36.6823 6.7179 37.4443 6.5319 38.3203 6.5319Z" fill="#2B2B2B"/>
<path d="M48.2176 16.0719C47.4616 16.0719 46.7416 15.9579 46.0576 15.7299C45.3736 15.5019 44.8396 15.2139 44.4556 14.8659L44.8696 14.1459C45.2536 14.4699 45.7456 14.7399 46.3456 14.9559C46.9576 15.1719 47.5936 15.2799 48.2536 15.2799C49.2016 15.2799 49.8976 15.1239 50.3416 14.8119C50.7976 14.4999 51.0256 14.0679 51.0256 13.5159C51.0256 13.1199 50.8996 12.8079 50.6476 12.5799C50.4076 12.3519 50.1076 12.1839 49.7476 12.0759C49.3876 11.9679 48.8896 11.8539 48.2536 11.7339C47.5096 11.6019 46.9096 11.4579 46.4536 11.3019C45.9976 11.1459 45.6076 10.8939 45.2836 10.5459C44.9596 10.1979 44.7976 9.7179 44.7976 9.1059C44.7976 8.3619 45.1036 7.7499 45.7156 7.2699C46.3396 6.7779 47.2216 6.5319 48.3616 6.5319C48.9616 6.5319 49.5556 6.6159 50.1436 6.7839C50.7316 6.9519 51.2116 7.1739 51.5836 7.4499L51.1696 8.1699C50.7856 7.8939 50.3476 7.6839 49.8556 7.5399C49.3636 7.3959 48.8596 7.3239 48.3436 7.3239C47.4676 7.3239 46.8076 7.4859 46.3636 7.8099C45.9196 8.1339 45.6976 8.5599 45.6976 9.0879C45.6976 9.5079 45.8236 9.8379 46.0756 10.0779C46.3276 10.3059 46.6336 10.4799 46.9936 10.5999C47.3656 10.7079 47.8816 10.8279 48.5416 10.9599C49.2736 11.0919 49.8616 11.2359 50.3056 11.3919C50.7616 11.5359 51.1456 11.7759 51.4576 12.1119C51.7696 12.4479 51.9256 12.9099 51.9256 13.4979C51.9256 14.2779 51.6016 14.9019 50.9536 15.3699C50.3056 15.8379 49.3936 16.0719 48.2176 16.0719Z" fill="#2B2B2B"/>
<path d="M58.8113 15.4059C58.5833 15.6219 58.2953 15.7899 57.9473 15.9099C57.6113 16.0179 57.2573 16.0719 56.8853 16.0719C56.0693 16.0719 55.4393 15.8499 54.9953 15.4059C54.5513 14.9499 54.3293 14.3199 54.3293 13.5159V4.5519H55.2293V6.6039H58.2173V7.3779H55.2293V13.4259C55.2293 14.0379 55.3733 14.5059 55.6613 14.8299C55.9613 15.1419 56.3993 15.2979 56.9753 15.2979C57.5633 15.2979 58.0493 15.1239 58.4333 14.7759L58.8113 15.4059Z" fill="#2B2B2B"/>
<path d="M69.3284 6.6039V15.9999H68.4464V13.7859C68.0744 14.5179 67.5524 15.0819 66.8804 15.4779C66.2084 15.8739 65.4464 16.0719 64.5944 16.0719C63.7184 16.0719 62.9264 15.8679 62.2184 15.4599C61.5104 15.0519 60.9524 14.4879 60.5444 13.7679C60.1484 13.0479 59.9504 12.2259 59.9504 11.3019C59.9504 10.3779 60.1484 9.5559 60.5444 8.8359C60.9524 8.1039 61.5104 7.5399 62.2184 7.1439C62.9264 6.7359 63.7184 6.5319 64.5944 6.5319C65.4344 6.5319 66.1844 6.7299 66.8444 7.1259C67.5164 7.5219 68.0444 8.0739 68.4284 8.7819V6.6039H69.3284ZM64.6484 15.2619C65.3684 15.2619 66.0104 15.0939 66.5744 14.7579C67.1504 14.4219 67.6004 13.9539 67.9244 13.3539C68.2604 12.7539 68.4284 12.0699 68.4284 11.3019C68.4284 10.5339 68.2604 9.8499 67.9244 9.2499C67.6004 8.6499 67.1504 8.1819 66.5744 7.8459C66.0104 7.5099 65.3684 7.3419 64.6484 7.3419C63.9284 7.3419 63.2804 7.5099 62.7044 7.8459C62.1404 8.1819 61.6904 8.6499 61.3544 9.2499C61.0304 9.8499 60.8684 10.5339 60.8684 11.3019C60.8684 12.0699 61.0304 12.7539 61.3544 13.3539C61.6904 13.9539 62.1404 14.4219 62.7044 14.7579C63.2804 15.0939 63.9284 15.2619 64.6484 15.2619Z" fill="#2B2B2B"/>
<path d="M81.5828 6.6039V14.9919C81.5828 16.5519 81.2048 17.7039 80.4488 18.4479C79.6928 19.1919 78.5528 19.5639 77.0288 19.5639C76.1648 19.5639 75.3488 19.4319 74.5808 19.1679C73.8128 18.9039 73.1948 18.5379 72.7268 18.0699L73.2128 17.3859C73.6808 17.8179 74.2448 18.1539 74.9048 18.3939C75.5648 18.6339 76.2668 18.7539 77.0108 18.7539C78.2588 18.7539 79.1828 18.4539 79.7828 17.8539C80.3828 17.2659 80.6828 16.3479 80.6828 15.0999V13.5159C80.2988 14.1999 79.7648 14.7279 79.0808 15.0999C78.3968 15.4719 77.6288 15.6579 76.7768 15.6579C75.9008 15.6579 75.1028 15.4659 74.3828 15.0819C73.6748 14.6859 73.1168 14.1399 72.7088 13.4439C72.3008 12.7479 72.0968 11.9619 72.0968 11.0859C72.0968 10.2099 72.3008 9.4239 72.7088 8.7279C73.1168 8.0319 73.6748 7.4919 74.3828 7.1079C75.1028 6.7239 75.9008 6.5319 76.7768 6.5319C77.6408 6.5319 78.4208 6.7239 79.1168 7.1079C79.8128 7.4919 80.3468 8.0319 80.7188 8.7279V6.6039H81.5828ZM76.8488 14.8479C77.5808 14.8479 78.2408 14.6919 78.8288 14.3799C79.4168 14.0559 79.8728 13.6119 80.1968 13.0479C80.5328 12.4719 80.7008 11.8179 80.7008 11.0859C80.7008 10.3539 80.5328 9.7059 80.1968 9.1419C79.8728 8.5779 79.4168 8.1399 78.8288 7.8279C78.2408 7.5039 77.5808 7.3419 76.8488 7.3419C76.1168 7.3419 75.4568 7.5039 74.8688 7.8279C74.2928 8.1399 73.8368 8.5779 73.5008 9.1419C73.1768 9.7059 73.0148 10.3539 73.0148 11.0859C73.0148 11.8179 73.1768 12.4719 73.5008 13.0479C73.8368 13.6119 74.2928 14.0559 74.8688 14.3799C75.4568 14.6919 76.1168 14.8479 76.8488 14.8479Z" fill="#2B2B2B"/>
<path d="M86.2564 8.6559C86.5444 7.9719 86.9944 7.4499 87.6064 7.0899C88.2184 6.7179 88.9624 6.5319 89.8384 6.5319V7.4139L89.6224 7.3959C88.5784 7.3959 87.7624 7.7259 87.1744 8.3859C86.5864 9.0339 86.2924 9.9399 86.2924 11.1039V15.9999H85.3924V6.6039H86.2564V8.6559Z" fill="#2B2B2B"/>
<path d="M100.582 6.6039V15.9999H99.7003V13.7859C99.3283 14.5179 98.8063 15.0819 98.1343 15.4779C97.4623 15.8739 96.7003 16.0719 95.8483 16.0719C94.9723 16.0719 94.1803 15.8679 93.4723 15.4599C92.7643 15.0519 92.2063 14.4879 91.7983 13.7679C91.4023 13.0479 91.2043 12.2259 91.2043 11.3019C91.2043 10.3779 91.4023 9.5559 91.7983 8.8359C92.2063 8.1039 92.7643 7.5399 93.4723 7.1439C94.1803 6.7359 94.9723 6.5319 95.8483 6.5319C96.6883 6.5319 97.4383 6.7299 98.0983 7.1259C98.7703 7.5219 99.2983 8.0739 99.6823 8.7819V6.6039H100.582ZM95.9023 15.2619C96.6223 15.2619 97.2643 15.0939 97.8283 14.7579C98.4043 14.4219 98.8543 13.9539 99.1783 13.3539C99.5143 12.7539 99.6823 12.0699 99.6823 11.3019C99.6823 10.5339 99.5143 9.8499 99.1783 9.2499C98.8543 8.6499 98.4043 8.1819 97.8283 7.8459C97.2643 7.5099 96.6223 7.3419 95.9023 7.3419C95.1823 7.3419 94.5343 7.5099 93.9583 7.8459C93.3943 8.1819 92.9443 8.6499 92.6083 9.2499C92.2843 9.8499 92.1223 10.5339 92.1223 11.3019C92.1223 12.0699 92.2843 12.7539 92.6083 13.3539C92.9443 13.9539 93.3943 14.4219 93.9583 14.7579C94.5343 15.0939 95.1823 15.2619 95.9023 15.2619Z" fill="#2B2B2B"/>
<path d="M116.077 6.5319C117.241 6.5319 118.153 6.8739 118.813 7.5579C119.485 8.2419 119.821 9.2259 119.821 10.5099V15.9999H118.921V10.5819C118.921 9.5259 118.663 8.7219 118.147 8.1699C117.631 7.6179 116.911 7.3419 115.987 7.3419C114.931 7.3419 114.091 7.6719 113.467 8.3319C112.855 8.9919 112.549 9.8799 112.549 10.9959V15.9999H111.649V10.5819C111.649 9.5259 111.391 8.7219 110.875 8.1699C110.359 7.6179 109.639 7.3419 108.715 7.3419C107.659 7.3419 106.819 7.6719 106.195 8.3319C105.583 8.9919 105.277 9.8799 105.277 10.9959V15.9999H104.377V6.6039H105.241V8.6199C105.553 7.9599 106.015 7.4499 106.627 7.0899C107.251 6.7179 107.989 6.5319 108.841 6.5319C109.693 6.5319 110.413 6.7239 111.001 7.1079C111.601 7.4919 112.027 8.0559 112.279 8.7999C112.591 8.1039 113.077 7.5519 113.737 7.1439C114.409 6.7359 115.189 6.5319 116.077 6.5319Z" fill="#2B2B2B"/>
<path fill-rule="evenodd" clip-rule="evenodd" d="M5.54168 2.0835C3.63169 2.0835 2.08334 3.63184 2.08334 5.54183V13.4585C2.08334 15.3685 3.63169 16.9168 5.54168 16.9168H13.4583C15.3683 16.9168 16.9167 15.3685 16.9167 13.4585V5.54183C16.9167 3.63184 15.3683 2.0835 13.4583 2.0835H5.54168ZM1.08334 5.54183C1.08334 3.07956 3.07941 1.0835 5.54168 1.0835H13.4583C15.9206 1.0835 17.9167 3.07956 17.9167 5.54183V13.4585C17.9167 15.9208 15.9206 17.9168 13.4583 17.9168H5.54168C3.07941 17.9168 1.08334 15.9208 1.08334 13.4585V5.54183Z" fill="#222222"/>
<path fill-rule="evenodd" clip-rule="evenodd" d="M9.92544 6.82816C9.37061 6.74589 8.80396 6.84066 8.3061 7.09899C7.80823 7.35732 7.4045 7.76607 7.15233 8.26708C6.90015 8.76809 6.81238 9.33587 6.90149 9.88964C6.9906 10.4434 7.25205 10.955 7.64867 11.3516C8.04528 11.7482 8.55686 12.0097 9.11063 12.0988C9.66441 12.1879 10.2322 12.1001 10.7332 11.8479C11.2342 11.5958 11.6429 11.192 11.9013 10.6942C12.1596 10.1963 12.2544 9.62966 12.1721 9.07483C12.0882 8.50888 11.8245 7.98493 11.4199 7.58037C11.0153 7.17581 10.4914 6.91209 9.92544 6.82816ZM7.84553 6.21137C8.53009 5.85616 9.30923 5.72585 10.0721 5.83898C10.8503 5.95438 11.5707 6.31699 12.127 6.87326C12.6833 7.42953 13.0459 8.14997 13.1613 8.92815C13.2744 9.69104 13.1441 10.4702 12.7889 11.1547C12.4337 11.8393 11.8717 12.3944 11.1828 12.7412C10.4939 13.0879 9.7132 13.2086 8.95176 13.0861C8.19032 12.9636 7.48691 12.6041 6.94156 12.0587C6.39622 11.5134 6.03671 10.8099 5.91419 10.0485C5.79166 9.28707 5.91235 8.50638 6.25909 7.81749C6.60583 7.1286 7.16096 6.56658 7.84553 6.21137Z" fill="#222222"/>
<path fill-rule="evenodd" clip-rule="evenodd" d="M13.3542 5.146C13.3542 4.86985 13.578 4.646 13.8542 4.646H13.8625C14.1387 4.646 14.3625 4.86985 14.3625 5.146C14.3625 5.42214 14.1387 5.646 13.8625 5.646H13.8542C13.578 5.646 13.3542 5.42214 13.3542 5.146Z" fill="#222222"/>
</svg>
