<svg width="228" height="58" viewBox="0 0 228 58" fill="none" xmlns="http://www.w3.org/2000/svg">
<path d="M7.28646 47.4724C7.93146 47.4724 8.51545 47.6206 9.03842 47.917C9.5614 48.2046 9.97106 48.6143 10.2674 49.146C10.5638 49.6777 10.7119 50.2834 10.7119 50.9633C10.7119 51.6432 10.5638 52.2489 10.2674 52.7806C9.97106 53.3123 9.5614 53.7263 9.03842 54.0227C8.51545 54.3191 7.93146 54.4672 7.28646 54.4672C6.71119 54.4672 6.19257 54.3452 5.73061 54.1011C5.27736 53.8571 4.91128 53.5041 4.63236 53.0421V54.4019H3.74331V44.7007H4.67159V48.8322C4.95922 48.3876 5.3253 48.0521 5.76983 47.8255C6.22308 47.5901 6.72862 47.4724 7.28646 47.4724ZM7.22109 53.6435C7.70048 53.6435 8.13629 53.5346 8.52852 53.3167C8.92075 53.0901 9.22582 52.7719 9.44373 52.3623C9.67035 51.9526 9.78366 51.4863 9.78366 50.9633C9.78366 50.4403 9.67035 49.974 9.44373 49.5643C9.22582 49.1547 8.92075 48.8409 8.52852 48.623C8.13629 48.3964 7.70048 48.2831 7.22109 48.2831C6.73298 48.2831 6.29281 48.3964 5.90058 48.623C5.51706 48.8409 5.21199 49.1547 4.98537 49.5643C4.76746 49.974 4.65851 50.4403 4.65851 50.9633C4.65851 51.4863 4.76746 51.9526 4.98537 52.3623C5.21199 52.7719 5.51706 53.0901 5.90058 53.3167C6.29281 53.5346 6.73298 53.6435 7.22109 53.6435ZM18.8015 47.5247V54.4019H17.9124V53.1467C17.6684 53.5651 17.3328 53.892 16.9057 54.1273C16.4786 54.3539 15.9905 54.4672 15.4414 54.4672C14.5436 54.4672 13.8332 54.2188 13.3103 53.722C12.796 53.2164 12.5389 52.4799 12.5389 51.5124V47.5247H13.4672V51.4209C13.4672 52.1443 13.6458 52.6935 14.0032 53.0683C14.3606 53.4431 14.8705 53.6305 15.5329 53.6305C16.2564 53.6305 16.8273 53.4126 17.2457 52.9767C17.664 52.5322 17.8732 51.9177 17.8732 51.1333V47.5247H18.8015ZM24.7876 53.9835C24.6133 54.1404 24.3997 54.2624 24.147 54.3496C23.8942 54.428 23.6284 54.4672 23.3494 54.4672C22.7044 54.4672 22.2076 54.2929 21.859 53.9443C21.5103 53.5956 21.336 53.1031 21.336 52.4668V46.0212H22.2643V47.5247H24.3431V48.3092H22.2643V52.4146C22.2643 52.8242 22.3645 53.138 22.565 53.3559C22.7654 53.5651 23.0574 53.6697 23.441 53.6697C23.8593 53.6697 24.1993 53.552 24.4608 53.3167L24.7876 53.9835ZM32.0101 45.4198C31.6091 45.4198 31.3041 45.5287 31.0949 45.7466C30.8944 45.9645 30.7942 46.287 30.7942 46.7141V47.5247H32.9122V48.3092H30.8203V54.4019H29.892V46.6749C29.892 46.0473 30.0707 45.5505 30.4281 45.1844C30.7942 44.8183 31.3084 44.6353 31.9709 44.6353C32.2323 44.6353 32.4851 44.6745 32.7292 44.753C32.9732 44.8227 33.1781 44.9273 33.3437 45.0668L33.0299 45.7597C32.7597 45.5331 32.4197 45.4198 32.0101 45.4198ZM35.2133 47.5247H36.1416V54.4019H35.2133V47.5247ZM35.684 46.0212C35.4922 46.0212 35.331 45.9558 35.2002 45.8251C35.0695 45.6943 35.0041 45.5374 35.0041 45.3544C35.0041 45.1801 35.0695 45.0275 35.2002 44.8968C35.331 44.766 35.4922 44.7007 35.684 44.7007C35.8757 44.7007 36.037 44.766 36.1677 44.8968C36.2985 45.0188 36.3638 45.167 36.3638 45.3413C36.3638 45.5331 36.2985 45.6943 36.1677 45.8251C36.037 45.9558 35.8757 46.0212 35.684 46.0212ZM39.6165 48.8714C39.8344 48.4094 40.1569 48.0608 40.584 47.8255C41.0198 47.5901 41.5559 47.4724 42.1922 47.4724V48.3746L41.9699 48.3615C41.2464 48.3615 40.6799 48.5838 40.2702 49.0283C39.8606 49.4728 39.6557 50.096 39.6557 50.8979V54.4019H38.7274V47.5247H39.6165V48.8714ZM45.7675 54.4672C45.2096 54.4672 44.6736 54.3888 44.1593 54.2319C43.6538 54.0663 43.2572 53.8614 42.9696 53.6174L43.3879 52.8852C43.6756 53.1119 44.0373 53.2993 44.4731 53.4474C44.9089 53.5869 45.3622 53.6566 45.8329 53.6566C46.4604 53.6566 46.9224 53.5607 47.2187 53.369C47.5238 53.1685 47.6763 52.8896 47.6763 52.5322C47.6763 52.2795 47.5935 52.0833 47.4279 51.9439C47.2623 51.7957 47.0531 51.6867 46.8004 51.617C46.5476 51.5386 46.212 51.4645 45.7936 51.3948C45.2358 51.2902 44.7869 51.1856 44.447 51.081C44.107 50.9677 43.815 50.7803 43.571 50.5188C43.3356 50.2573 43.218 49.8956 43.218 49.4336C43.218 48.8583 43.4577 48.3876 43.9371 48.0216C44.4165 47.6555 45.0833 47.4724 45.9374 47.4724C46.382 47.4724 46.8265 47.5335 47.271 47.6555C47.7156 47.7688 48.0816 47.9213 48.3693 48.1131L47.964 48.8583C47.3974 48.4661 46.7219 48.27 45.9374 48.27C45.3447 48.27 44.8959 48.3746 44.5908 48.5838C44.2944 48.793 44.1463 49.0675 44.1463 49.4074C44.1463 49.6689 44.2291 49.8781 44.3947 50.035C44.569 50.1919 44.7825 50.3096 45.0353 50.388C45.2881 50.4578 45.6367 50.5318 46.0813 50.6103C46.6304 50.7149 47.0706 50.8195 47.4018 50.9241C47.733 51.0287 48.0163 51.2074 48.2516 51.4601C48.4869 51.7129 48.6046 52.0615 48.6046 52.5061C48.6046 53.1075 48.3518 53.5869 47.8463 53.9443C47.3495 54.2929 46.6565 54.4672 45.7675 54.4672ZM53.707 53.9835C53.5327 54.1404 53.3191 54.2624 53.0663 54.3496C52.8136 54.428 52.5477 54.4672 52.2688 54.4672C51.6238 54.4672 51.127 54.2929 50.7783 53.9443C50.4297 53.5956 50.2554 53.1031 50.2554 52.4668V46.0212H51.1836V47.5247H53.2625V48.3092H51.1836V52.4146C51.1836 52.8242 51.2839 53.138 51.4843 53.3559C51.6848 53.5651 51.9768 53.6697 52.3603 53.6697C52.7787 53.6697 53.1186 53.552 53.3801 53.3167L53.707 53.9835ZM65.0871 44.7007V54.4019H64.198V53.0421C63.9191 53.5041 63.5487 53.8571 63.0867 54.1011C62.6335 54.3452 62.1192 54.4672 61.5439 54.4672C60.8989 54.4672 60.315 54.3191 59.792 54.0227C59.269 53.7263 58.8593 53.3123 58.563 52.7806C58.2666 52.2489 58.1185 51.6432 58.1185 50.9633C58.1185 50.2834 58.2666 49.6777 58.563 49.146C58.8593 48.6143 59.269 48.2046 59.792 47.917C60.315 47.6206 60.8989 47.4724 61.5439 47.4724C62.1018 47.4724 62.603 47.5901 63.0475 47.8255C63.5007 48.0521 63.8712 48.3876 64.1588 48.8322V44.7007H65.0871ZM61.6224 53.6435C62.1018 53.6435 62.5332 53.5346 62.9168 53.3167C63.309 53.0901 63.6141 52.7719 63.832 52.3623C64.0586 51.9526 64.1719 51.4863 64.1719 50.9633C64.1719 50.4403 64.0586 49.974 63.832 49.5643C63.6141 49.1547 63.309 48.8409 62.9168 48.623C62.5332 48.3964 62.1018 48.2831 61.6224 48.2831C61.1343 48.2831 60.6941 48.3964 60.3019 48.623C59.9184 48.8409 59.6133 49.1547 59.3867 49.5643C59.1688 49.974 59.0598 50.4403 59.0598 50.9633C59.0598 51.4863 59.1688 51.9526 59.3867 52.3623C59.6133 52.7719 59.9184 53.0901 60.3019 53.3167C60.6941 53.5346 61.1343 53.6435 61.6224 53.6435ZM68.5614 48.8714C68.7793 48.4094 69.1018 48.0608 69.5289 47.8255C69.9647 47.5901 70.5008 47.4724 71.1371 47.4724V48.3746L70.9148 48.3615C70.1913 48.3615 69.6248 48.5838 69.2151 49.0283C68.8055 49.4728 68.6006 50.096 68.6006 50.8979V54.4019H67.6724V47.5247H68.5614V48.8714ZM75.6957 53.6435C76.1228 53.6435 76.515 53.5695 76.8724 53.4213C77.2385 53.2644 77.5479 53.0378 77.8007 52.7414L78.3237 53.3428C78.0186 53.7089 77.6394 53.9878 77.1862 54.1796C76.733 54.3713 76.2318 54.4672 75.6826 54.4672C74.9766 54.4672 74.3491 54.3191 73.7999 54.0227C73.2508 53.7176 72.8237 53.2993 72.5186 52.7676C72.2136 52.2359 72.061 51.6344 72.061 50.9633C72.061 50.2921 72.2049 49.6907 72.4925 49.159C72.7889 48.6273 73.1942 48.2133 73.7084 47.917C74.2227 47.6206 74.8067 47.4724 75.4604 47.4724C76.0705 47.4724 76.6196 47.6119 77.1078 47.8908C77.6046 48.1697 77.9968 48.5576 78.2844 49.0544C78.5808 49.5513 78.7377 50.1178 78.7551 50.7541L73.107 51.8524C73.2813 52.4102 73.5951 52.8504 74.0483 53.1729C74.5103 53.4866 75.0594 53.6435 75.6957 53.6435ZM75.4604 48.27C74.981 48.27 74.5495 48.3833 74.166 48.6099C73.7912 48.8278 73.4949 49.1372 73.277 49.5382C73.0678 49.9304 72.9632 50.3837 72.9632 50.8979C72.9632 51.0287 72.9675 51.1245 72.9763 51.1856L77.8268 50.2442C77.7222 49.6689 77.4564 49.1983 77.0293 48.8322C76.6022 48.4574 76.0792 48.27 75.4604 48.27ZM82.4881 54.4672C81.9302 54.4672 81.3942 54.3888 80.8799 54.2319C80.3744 54.0663 79.9778 53.8614 79.6901 53.6174L80.1085 52.8852C80.3962 53.1119 80.7579 53.2993 81.1937 53.4474C81.6295 53.5869 82.0827 53.6566 82.5534 53.6566C83.181 53.6566 83.643 53.5607 83.9393 53.369C84.2444 53.1685 84.3969 52.8896 84.3969 52.5322C84.3969 52.2795 84.3141 52.0833 84.1485 51.9439C83.9829 51.7957 83.7737 51.6867 83.5209 51.617C83.2682 51.5386 82.9326 51.4645 82.5142 51.3948C81.9564 51.2902 81.5075 51.1856 81.1675 51.081C80.8276 50.9677 80.5356 50.7803 80.2916 50.5188C80.0562 50.2573 79.9386 49.8956 79.9386 49.4336C79.9386 48.8583 80.1782 48.3876 80.6576 48.0216C81.137 47.6555 81.8038 47.4724 82.658 47.4724C83.1025 47.4724 83.5471 47.5335 83.9916 47.6555C84.4361 47.7688 84.8022 47.9213 85.0899 48.1131L84.6845 48.8583C84.118 48.4661 83.4425 48.27 82.658 48.27C82.0653 48.27 81.6164 48.3746 81.3114 48.5838C81.015 48.793 80.8668 49.0675 80.8668 49.4074C80.8668 49.6689 80.9496 49.8781 81.1152 50.035C81.2896 50.1919 81.5031 50.3096 81.7559 50.388C82.0087 50.4578 82.3573 50.5318 82.8018 50.6103C83.351 50.7149 83.7911 50.8195 84.1223 50.9241C84.4536 51.0287 84.7368 51.2074 84.9722 51.4601C85.2075 51.7129 85.3252 52.0615 85.3252 52.5061C85.3252 53.1075 85.0724 53.5869 84.5669 53.9443C84.07 54.2929 83.3771 54.4672 82.4881 54.4672ZM88.8848 54.4672C88.3269 54.4672 87.7909 54.3888 87.2766 54.2319C86.7711 54.0663 86.3745 53.8614 86.0869 53.6174L86.5053 52.8852C86.7929 53.1119 87.1546 53.2993 87.5904 53.4474C88.0262 53.5869 88.4795 53.6566 88.9502 53.6566C89.5777 53.6566 90.0397 53.5607 90.336 53.369C90.6411 53.1685 90.7936 52.8896 90.7936 52.5322C90.7936 52.2795 90.7108 52.0833 90.5452 51.9439C90.3796 51.7957 90.1704 51.6867 89.9177 51.617C89.6649 51.5386 89.3293 51.4645 88.9109 51.3948C88.3531 51.2902 87.9042 51.1856 87.5643 51.081C87.2243 50.9677 86.9323 50.7803 86.6883 50.5188C86.453 50.2573 86.3353 49.8956 86.3353 49.4336C86.3353 48.8583 86.575 48.3876 87.0544 48.0216C87.5338 47.6555 88.2006 47.4724 89.0548 47.4724C89.4993 47.4724 89.9438 47.5335 90.3883 47.6555C90.8329 47.7688 91.199 47.9213 91.4866 48.1131L91.0813 48.8583C90.5147 48.4661 89.8392 48.27 89.0548 48.27C88.4621 48.27 88.0132 48.3746 87.7081 48.5838C87.4117 48.793 87.2636 49.0675 87.2636 49.4074C87.2636 49.6689 87.3464 49.8781 87.512 50.035C87.6863 50.1919 87.8999 50.3096 88.1526 50.388C88.4054 50.4578 88.754 50.5318 89.1986 50.6103C89.7477 50.7149 90.1879 50.8195 90.5191 50.9241C90.8503 51.0287 91.1336 51.2074 91.3689 51.4601C91.6043 51.7129 91.7219 52.0615 91.7219 52.5061C91.7219 53.1075 91.4692 53.5869 90.9636 53.9443C90.4668 54.2929 89.7738 54.4672 88.8848 54.4672ZM103.057 47.5247V53.5651C103.057 54.7331 102.791 55.596 102.26 56.1538C101.728 56.7204 100.926 57.0037 99.8539 57.0037C99.2525 57.0037 98.6815 56.9078 98.1411 56.716C97.6094 56.533 97.178 56.2758 96.8468 55.9446L97.3174 55.2386C97.6138 55.535 97.9799 55.7659 98.4157 55.9316C98.8515 56.0972 99.3178 56.18 99.8147 56.18C100.608 56.18 101.192 55.9751 101.567 55.5655C101.941 55.1645 102.129 54.537 102.129 53.6828V52.8852C101.885 53.2862 101.549 53.5956 101.122 53.8135C100.704 54.0314 100.229 54.1404 99.697 54.1404C98.7992 54.1404 98.0888 53.892 97.5659 53.3951C97.0516 52.8896 96.7945 52.1531 96.7945 51.1856V47.5247H97.7228V51.094C97.7228 51.8175 97.9014 52.3666 98.2588 52.7414C98.6162 53.1162 99.1261 53.3036 99.7885 53.3036C100.512 53.3036 101.083 53.0857 101.501 52.6499C101.92 52.2054 102.129 51.5909 102.129 50.8064V47.5247H103.057ZM108.468 54.4672C107.806 54.4672 107.208 54.3191 106.677 54.0227C106.145 53.7176 105.727 53.2993 105.422 52.7676C105.117 52.2359 104.964 51.6344 104.964 50.9633C104.964 50.2921 105.117 49.6907 105.422 49.159C105.727 48.6273 106.145 48.2133 106.677 47.917C107.208 47.6206 107.806 47.4724 108.468 47.4724C109.13 47.4724 109.727 47.6206 110.259 47.917C110.791 48.2133 111.205 48.6273 111.501 49.159C111.806 49.6907 111.959 50.2921 111.959 50.9633C111.959 51.6344 111.806 52.2359 111.501 52.7676C111.205 53.2993 110.791 53.7176 110.259 54.0227C109.727 54.3191 109.13 54.4672 108.468 54.4672ZM108.468 53.6435C108.956 53.6435 109.392 53.5346 109.775 53.3167C110.168 53.0901 110.473 52.7719 110.691 52.3623C110.908 51.9526 111.017 51.4863 111.017 50.9633C111.017 50.4403 110.908 49.974 110.691 49.5643C110.473 49.1547 110.168 48.8409 109.775 48.623C109.392 48.3964 108.956 48.2831 108.468 48.2831C107.98 48.2831 107.54 48.3964 107.147 48.623C106.764 48.8409 106.459 49.1547 106.232 49.5643C106.014 49.974 105.905 50.4403 105.905 50.9633C105.905 51.4863 106.014 51.9526 106.232 52.3623C106.459 52.7719 106.764 53.0901 107.147 53.3167C107.54 53.5346 107.98 53.6435 108.468 53.6435ZM120.051 47.5247V54.4019H119.162V53.1467C118.918 53.5651 118.583 53.892 118.155 54.1273C117.728 54.3539 117.24 54.4672 116.691 54.4672C115.793 54.4672 115.083 54.2188 114.56 53.722C114.046 53.2164 113.789 52.4799 113.789 51.5124V47.5247H114.717V51.4209C114.717 52.1443 114.896 52.6935 115.253 53.0683C115.61 53.4431 116.12 53.6305 116.783 53.6305C117.506 53.6305 118.077 53.4126 118.495 52.9767C118.914 52.5322 119.123 51.9177 119.123 51.1333V47.5247H120.051ZM123.54 48.8714C123.758 48.4094 124.081 48.0608 124.508 47.8255C124.943 47.5901 125.479 47.4724 126.116 47.4724V48.3746L125.894 48.3615C125.17 48.3615 124.604 48.5838 124.194 49.0283C123.784 49.4728 123.579 50.096 123.579 50.8979V54.4019H122.651V47.5247H123.54V48.8714ZM129.691 54.4672C129.133 54.4672 128.597 54.3888 128.083 54.2319C127.577 54.0663 127.181 53.8614 126.893 53.6174L127.312 52.8852C127.599 53.1119 127.961 53.2993 128.397 53.4474C128.833 53.5869 129.286 53.6566 129.756 53.6566C130.384 53.6566 130.846 53.5607 131.142 53.369C131.447 53.1685 131.6 52.8896 131.6 52.5322C131.6 52.2795 131.517 52.0833 131.352 51.9439C131.186 51.7957 130.977 51.6867 130.724 51.617C130.471 51.5386 130.136 51.4645 129.717 51.3948C129.159 51.2902 128.711 51.1856 128.371 51.081C128.031 50.9677 127.739 50.7803 127.495 50.5188C127.259 50.2573 127.142 49.8956 127.142 49.4336C127.142 48.8583 127.381 48.3876 127.861 48.0216C128.34 47.6555 129.007 47.4724 129.861 47.4724C130.306 47.4724 130.75 47.5335 131.195 47.6555C131.639 47.7688 132.005 47.9213 132.293 48.1131L131.888 48.8583C131.321 48.4661 130.646 48.27 129.861 48.27C129.268 48.27 128.819 48.3746 128.514 48.5838C128.218 48.793 128.07 49.0675 128.07 49.4074C128.07 49.6689 128.153 49.8781 128.318 50.035C128.493 50.1919 128.706 50.3096 128.959 50.388C129.212 50.4578 129.56 50.5318 130.005 50.6103C130.554 50.7149 130.994 50.8195 131.325 50.9241C131.657 51.0287 131.94 51.2074 132.175 51.4601C132.411 51.7129 132.528 52.0615 132.528 52.5061C132.528 53.1075 132.275 53.5869 131.77 53.9443C131.273 54.2929 130.58 54.4672 129.691 54.4672ZM137.186 53.6435C137.613 53.6435 138.005 53.5695 138.363 53.4213C138.729 53.2644 139.038 53.0378 139.291 52.7414L139.814 53.3428C139.509 53.7089 139.13 53.9878 138.677 54.1796C138.223 54.3713 137.722 54.4672 137.173 54.4672C136.467 54.4672 135.839 54.3191 135.29 54.0227C134.741 53.7176 134.314 53.2993 134.009 52.7676C133.704 52.2359 133.551 51.6344 133.551 50.9633C133.551 50.2921 133.695 49.6907 133.983 49.159C134.279 48.6273 134.685 48.2133 135.199 47.917C135.713 47.6206 136.297 47.4724 136.951 47.4724C137.561 47.4724 138.11 47.6119 138.598 47.8908C139.095 48.1697 139.487 48.5576 139.775 49.0544C140.071 49.5513 140.228 50.1178 140.245 50.7541L134.597 51.8524C134.772 52.4102 135.085 52.8504 135.539 53.1729C136.001 53.4866 136.55 53.6435 137.186 53.6435ZM136.951 48.27C136.471 48.27 136.04 48.3833 135.656 48.6099C135.282 48.8278 134.985 49.1372 134.767 49.5382C134.558 49.9304 134.454 50.3837 134.454 50.8979C134.454 51.0287 134.458 51.1245 134.467 51.1856L139.317 50.2442C139.213 49.6689 138.947 49.1983 138.52 48.8322C138.093 48.4574 137.57 48.27 136.951 48.27ZM144.07 54.4672C143.451 54.4672 142.972 54.2929 142.632 53.9443C142.301 53.5956 142.135 53.1119 142.135 52.493V44.7007H143.063V52.4146C143.063 52.8242 143.159 53.138 143.351 53.3559C143.543 53.5651 143.83 53.6697 144.214 53.6697C144.458 53.6697 144.667 53.6305 144.841 53.552L144.907 54.3234C144.636 54.4193 144.358 54.4672 144.07 54.4672ZM148.288 45.4198C147.887 45.4198 147.582 45.5287 147.372 45.7466C147.172 45.9645 147.072 46.287 147.072 46.7141V47.5247H149.19V48.3092H147.098V54.4019H146.17V46.6749C146.17 46.0473 146.348 45.5505 146.706 45.1844C147.072 44.8183 147.586 44.6353 148.248 44.6353C148.51 44.6353 148.763 44.6745 149.007 44.753C149.251 44.8227 149.456 44.9273 149.621 45.0668L149.307 45.7597C149.037 45.5331 148.697 45.4198 148.288 45.4198ZM153.869 47.5247H154.797V54.4019H153.869V47.5247ZM154.339 46.0212C154.148 46.0212 153.986 45.9558 153.856 45.8251C153.725 45.6943 153.659 45.5374 153.659 45.3544C153.659 45.1801 153.725 45.0275 153.856 44.8968C153.986 44.766 154.148 44.7007 154.339 44.7007C154.531 44.7007 154.692 44.766 154.823 44.8968C154.954 45.0188 155.019 45.167 155.019 45.3413C155.019 45.5331 154.954 45.6943 154.823 45.8251C154.692 45.9558 154.531 46.0212 154.339 46.0212ZM160.884 47.4724C161.747 47.4724 162.431 47.7252 162.936 48.2308C163.451 48.7276 163.708 49.4554 163.708 50.4142V54.4019H162.78V50.5057C162.78 49.791 162.601 49.2462 162.244 48.8714C161.886 48.4966 161.376 48.3092 160.714 48.3092C159.973 48.3092 159.385 48.5315 158.949 48.976C158.522 49.4118 158.308 50.0176 158.308 50.7933V54.4019H157.38V47.5247H158.269V48.793C158.522 48.3746 158.87 48.0521 159.315 47.8255C159.768 47.5901 160.291 47.4724 160.884 47.4724ZM172.199 50.9502L170.578 52.4407V54.4019H169.65V44.7007H170.578V51.2771L174.683 47.5247H175.834L172.892 50.3357L176.109 54.4019H174.971L172.199 50.9502ZM177.4 47.5247H178.328V54.4019H177.4V47.5247ZM177.871 46.0212C177.679 46.0212 177.518 45.9558 177.387 45.8251C177.256 45.6943 177.191 45.5374 177.191 45.3544C177.191 45.1801 177.256 45.0275 177.387 44.8968C177.518 44.766 177.679 44.7007 177.871 44.7007C178.062 44.7007 178.224 44.766 178.354 44.8968C178.485 45.0188 178.551 45.167 178.551 45.3413C178.551 45.5331 178.485 45.6943 178.354 45.8251C178.224 45.9558 178.062 46.0212 177.871 46.0212ZM184.415 47.4724C185.278 47.4724 185.962 47.7252 186.468 48.2308C186.982 48.7276 187.239 49.4554 187.239 50.4142V54.4019H186.311V50.5057C186.311 49.791 186.132 49.2462 185.775 48.8714C185.417 48.4966 184.908 48.3092 184.245 48.3092C183.504 48.3092 182.916 48.5315 182.48 48.976C182.053 49.4118 181.839 50.0176 181.839 50.7933V54.4019H180.911V47.5247H181.8V48.793C182.053 48.3746 182.402 48.0521 182.846 47.8255C183.299 47.5901 183.822 47.4724 184.415 47.4724ZM196.061 44.7007V54.4019H195.171V53.0421C194.893 53.5041 194.522 53.8571 194.06 54.1011C193.607 54.3452 193.093 54.4672 192.517 54.4672C191.872 54.4672 191.288 54.3191 190.765 54.0227C190.242 53.7263 189.833 53.3123 189.536 52.7806C189.24 52.2489 189.092 51.6432 189.092 50.9633C189.092 50.2834 189.24 49.6777 189.536 49.146C189.833 48.6143 190.242 48.2046 190.765 47.917C191.288 47.6206 191.872 47.4724 192.517 47.4724C193.075 47.4724 193.576 47.5901 194.021 47.8255C194.474 48.0521 194.845 48.3876 195.132 48.8322V44.7007H196.061ZM192.596 53.6435C193.075 53.6435 193.507 53.5346 193.89 53.3167C194.282 53.0901 194.588 52.7719 194.805 52.3623C195.032 51.9526 195.145 51.4863 195.145 50.9633C195.145 50.4403 195.032 49.974 194.805 49.5643C194.588 49.1547 194.282 48.8409 193.89 48.623C193.507 48.3964 193.075 48.2831 192.596 48.2831C192.108 48.2831 191.668 48.3964 191.275 48.623C190.892 48.8409 190.587 49.1547 190.36 49.5643C190.142 49.974 190.033 50.4403 190.033 50.9633C190.033 51.4863 190.142 51.9526 190.36 52.3623C190.587 52.7719 190.892 53.0901 191.275 53.3167C191.668 53.5346 192.108 53.6435 192.596 53.6435ZM202.15 47.4724C203.013 47.4724 203.697 47.7252 204.202 48.2308C204.717 48.7276 204.974 49.4554 204.974 50.4142V54.4019H204.046V50.5057C204.046 49.791 203.867 49.2462 203.509 48.8714C203.152 48.4966 202.642 48.3092 201.98 48.3092C201.239 48.3092 200.651 48.5315 200.215 48.976C199.788 49.4118 199.574 50.0176 199.574 50.7933V54.4019H198.646V47.5247H199.535V48.793C199.788 48.3746 200.136 48.0521 200.581 47.8255C201.034 47.5901 201.557 47.4724 202.15 47.4724ZM210.461 53.6435C210.888 53.6435 211.281 53.5695 211.638 53.4213C212.004 53.2644 212.313 53.0378 212.566 52.7414L213.089 53.3428C212.784 53.7089 212.405 53.9878 211.952 54.1796C211.498 54.3713 210.997 54.4672 210.448 54.4672C209.742 54.4672 209.115 54.3191 208.565 54.0227C208.016 53.7176 207.589 53.2993 207.284 52.7676C206.979 52.2359 206.827 51.6344 206.827 50.9633C206.827 50.2921 206.97 49.6907 207.258 49.159C207.554 48.6273 207.96 48.2133 208.474 47.917C208.988 47.6206 209.572 47.4724 210.226 47.4724C210.836 47.4724 211.385 47.6119 211.873 47.8908C212.37 48.1697 212.762 48.5576 213.05 49.0544C213.346 49.5513 213.503 50.1178 213.521 50.7541L207.873 51.8524C208.047 52.4102 208.361 52.8504 208.814 53.1729C209.276 53.4866 209.825 53.6435 210.461 53.6435ZM210.226 48.27C209.747 48.27 209.315 48.3833 208.932 48.6099C208.557 48.8278 208.26 49.1372 208.042 49.5382C207.833 49.9304 207.729 50.3837 207.729 50.8979C207.729 51.0287 207.733 51.1245 207.742 51.1856L212.592 50.2442C212.488 49.6689 212.222 49.1983 211.795 48.8322C211.368 48.4574 210.845 48.27 210.226 48.27ZM217.254 54.4672C216.696 54.4672 216.16 54.3888 215.645 54.2319C215.14 54.0663 214.743 53.8614 214.456 53.6174L214.874 52.8852C215.162 53.1119 215.523 53.2993 215.959 53.4474C216.395 53.5869 216.848 53.6566 217.319 53.6566C217.947 53.6566 218.408 53.5607 218.705 53.369C219.01 53.1685 219.162 52.8896 219.162 52.5322C219.162 52.2795 219.08 52.0833 218.914 51.9439C218.748 51.7957 218.539 51.6867 218.286 51.617C218.034 51.5386 217.698 51.4645 217.28 51.3948C216.722 51.2902 216.273 51.1856 215.933 51.081C215.593 50.9677 215.301 50.7803 215.057 50.5188C214.822 50.2573 214.704 49.8956 214.704 49.4336C214.704 48.8583 214.944 48.3876 215.423 48.0216C215.903 47.6555 216.569 47.4724 217.424 47.4724C217.868 47.4724 218.313 47.5335 218.757 47.6555C219.202 47.7688 219.568 47.9213 219.855 48.1131L219.45 48.8583C218.884 48.4661 218.208 48.27 217.424 48.27C216.831 48.27 216.382 48.3746 216.077 48.5838C215.781 48.793 215.632 49.0675 215.632 49.4074C215.632 49.6689 215.715 49.8781 215.881 50.035C216.055 50.1919 216.269 50.3096 216.521 50.388C216.774 50.4578 217.123 50.5318 217.567 50.6103C218.116 50.7149 218.557 50.8195 218.888 50.9241C219.219 51.0287 219.502 51.2074 219.738 51.4601C219.973 51.7129 220.091 52.0615 220.091 52.5061C220.091 53.1075 219.838 53.5869 219.332 53.9443C218.836 54.2929 218.143 54.4672 217.254 54.4672ZM223.65 54.4672C223.092 54.4672 222.556 54.3888 222.042 54.2319C221.537 54.0663 221.14 53.8614 220.852 53.6174L221.271 52.8852C221.558 53.1119 221.92 53.2993 222.356 53.4474C222.792 53.5869 223.245 53.6566 223.716 53.6566C224.343 53.6566 224.805 53.5607 225.102 53.369C225.407 53.1685 225.559 52.8896 225.559 52.5322C225.559 52.2795 225.476 52.0833 225.311 51.9439C225.145 51.7957 224.936 51.6867 224.683 51.617C224.43 51.5386 224.095 51.4645 223.676 51.3948C223.119 51.2902 222.67 51.1856 222.33 51.081C221.99 50.9677 221.698 50.7803 221.454 50.5188C221.218 50.2573 221.101 49.8956 221.101 49.4336C221.101 48.8583 221.341 48.3876 221.82 48.0216C222.299 47.6555 222.966 47.4724 223.82 47.4724C224.265 47.4724 224.709 47.5335 225.154 47.6555C225.598 47.7688 225.964 47.9213 226.252 48.1131L225.847 48.8583C225.28 48.4661 224.605 48.27 223.82 48.27C223.228 48.27 222.779 48.3746 222.474 48.5838C222.177 48.793 222.029 49.0675 222.029 49.4074C222.029 49.6689 222.112 49.8781 222.278 50.035C222.452 50.1919 222.665 50.3096 222.918 50.388C223.171 50.4578 223.52 50.5318 223.964 50.6103C224.513 50.7149 224.953 50.8195 225.285 50.9241C225.616 51.0287 225.899 51.2074 226.134 51.4601C226.37 51.7129 226.487 52.0615 226.487 52.5061C226.487 53.1075 226.235 53.5869 225.729 53.9443C225.232 54.2929 224.539 54.4672 223.65 54.4672Z" fill="#2B2B2B"/>
<path d="M1.37281 9.85838C1.83041 9.88017 2.42965 9.90196 3.17053 9.92375C3.91141 9.94554 4.6414 9.95643 5.36049 9.95643C6.38465 9.95643 7.36523 9.94554 8.30222 9.92375C9.23922 9.90196 9.90383 9.89106 10.2961 9.89106C12.5841 9.89106 14.3055 10.3705 15.4604 11.3292C16.6153 12.288 17.1928 13.5192 17.1928 15.0227C17.1928 15.7854 17.0294 16.5372 16.7025 17.2781C16.3974 17.9972 15.8745 18.6618 15.1336 19.2719C14.4145 19.8603 13.4448 20.3397 12.2245 20.7101V20.7755C13.946 20.9934 15.2861 21.4074 16.2449 22.0175C17.2255 22.6059 17.9119 23.3032 18.3041 24.1094C18.6963 24.9157 18.8925 25.7655 18.8925 26.6589C18.8925 27.901 18.5765 29.0014 17.9446 29.9602C17.3344 30.8972 16.441 31.6381 15.2643 32.1829C14.0876 32.7276 12.6821 33 11.0478 33C10.5684 33 9.84935 32.9891 8.89057 32.9673C7.93178 32.9237 6.77688 32.9019 5.42586 32.9019C4.66319 32.9019 3.91141 32.9128 3.17053 32.9346C2.42965 32.9346 1.83041 32.9564 1.37281 33V32.3463C2.11369 32.3027 2.66935 32.2155 3.03979 32.0848C3.43202 31.9541 3.69351 31.6926 3.82425 31.3003C3.955 30.9081 4.02037 30.3198 4.02037 29.5353V13.3231C4.02037 12.5168 3.955 11.9285 3.82425 11.558C3.69351 11.1658 3.43202 10.9043 3.03979 10.7736C2.66935 10.621 2.11369 10.5339 1.37281 10.5121V9.85838ZM9.47891 10.5121C8.47655 10.5121 7.82283 10.6973 7.51776 11.0678C7.21269 11.4382 7.06016 12.19 7.06016 13.3231V29.5353C7.06016 30.298 7.12553 30.8754 7.25627 31.2676C7.38702 31.6599 7.62671 31.9214 7.97536 32.0521C8.32401 32.1829 8.83609 32.2482 9.5116 32.2482C11.6471 32.2482 13.1942 31.7579 14.153 30.7774C15.1336 29.775 15.6239 28.3586 15.6239 26.5282C15.6239 24.8503 15.1663 23.5538 14.2511 22.6386C13.3576 21.7234 11.8759 21.2658 9.80577 21.2658H6.43912C6.43912 21.2658 6.43912 21.1786 6.43912 21.0043C6.43912 20.8082 6.43912 20.7101 6.43912 20.7101H9.25011C10.5358 20.7101 11.5272 20.4704 12.2245 19.991C12.9218 19.4898 13.4012 18.8361 13.6627 18.0299C13.9242 17.2018 14.0549 16.3193 14.0549 15.3823C14.0549 13.7698 13.6954 12.5604 12.9763 11.7542C12.279 10.9261 11.1132 10.5121 9.47891 10.5121ZM24.8793 7.99528C25.4459 7.99528 25.9362 8.20229 26.3502 8.61631C26.7642 9.03033 26.9712 9.52062 26.9712 10.0872C26.9712 10.6537 26.7642 11.144 26.3502 11.558C25.9362 11.9721 25.4459 12.1791 24.8793 12.1791C24.3128 12.1791 23.8225 11.9721 23.4085 11.558C22.9945 11.144 22.7874 10.6537 22.7874 10.0872C22.7874 9.52062 22.9945 9.03033 23.4085 8.61631C23.8225 8.20229 24.3128 7.99528 24.8793 7.99528ZM26.579 15.8072V29.9602C26.579 30.8754 26.7642 31.4964 27.1347 31.8233C27.5269 32.1502 28.1697 32.3136 29.0631 32.3136V33C28.6927 32.9782 28.1261 32.9564 27.3635 32.9346C26.6226 32.891 25.8708 32.8693 25.1081 32.8693C24.3673 32.8693 23.6155 32.891 22.8528 32.9346C22.0901 32.9564 21.5236 32.9782 21.1531 33V32.3136C22.0466 32.3136 22.6785 32.1502 23.0489 31.8233C23.4412 31.4964 23.6373 30.8754 23.6373 29.9602V19.7295C23.6373 18.7489 23.4629 18.0299 23.1143 17.5722C22.7656 17.0929 22.1119 16.8532 21.1531 16.8532V16.1668C21.8504 16.2321 22.526 16.2648 23.1797 16.2648C23.8116 16.2648 24.4108 16.2321 24.9774 16.1668C25.5657 16.0796 26.0996 15.9597 26.579 15.8072ZM35.9262 7.37425V29.9602C35.9262 30.8754 36.1114 31.4964 36.4818 31.8233C36.874 32.1502 37.5169 32.3136 38.4103 32.3136V33C38.0398 32.9782 37.4733 32.9564 36.7106 32.9346C35.9697 32.891 35.218 32.8693 34.4553 32.8693C33.7144 32.8693 32.9626 32.891 32.2 32.9346C31.4373 32.9564 30.8707 32.9782 30.5003 33V32.3136C31.3937 32.3136 32.0256 32.1502 32.3961 31.8233C32.7883 31.4964 32.9844 30.8754 32.9844 29.9602V11.2966C32.9844 10.316 32.8101 9.59689 32.4614 9.13929C32.1128 8.65989 31.4591 8.4202 30.5003 8.4202V7.73379C31.1976 7.79916 31.8731 7.83185 32.5268 7.83185C33.1587 7.83185 33.758 7.79916 34.3245 7.73379C34.9129 7.64663 35.4468 7.52678 35.9262 7.37425ZM43.8078 7.99528C44.3744 7.99528 44.8646 8.20229 45.2787 8.61631C45.6927 9.03033 45.8997 9.52062 45.8997 10.0872C45.8997 10.6537 45.6927 11.144 45.2787 11.558C44.8646 11.9721 44.3744 12.1791 43.8078 12.1791C43.2412 12.1791 42.751 11.9721 42.3369 11.558C41.9229 11.144 41.7159 10.6537 41.7159 10.0872C41.7159 9.52062 41.9229 9.03033 42.3369 8.61631C42.751 8.20229 43.2412 7.99528 43.8078 7.99528ZM45.5075 15.8072V29.9602C45.5075 30.8754 45.6927 31.4964 46.0631 31.8233C46.4554 32.1502 47.0982 32.3136 47.9916 32.3136V33C47.6212 32.9782 47.0546 32.9564 46.2919 32.9346C45.551 32.891 44.7993 32.8693 44.0366 32.8693C43.2957 32.8693 42.5439 32.891 41.7813 32.9346C41.0186 32.9564 40.452 32.9782 40.0816 33V32.3136C40.975 32.3136 41.6069 32.1502 41.9774 31.8233C42.3696 31.4964 42.5657 30.8754 42.5657 29.9602V19.7295C42.5657 18.7489 42.3914 18.0299 42.0428 17.5722C41.6941 17.0929 41.0404 16.8532 40.0816 16.8532V16.1668C40.7789 16.2321 41.4544 16.2648 42.1081 16.2648C42.7401 16.2648 43.3393 16.2321 43.9059 16.1668C44.4942 16.0796 45.0281 15.9597 45.5075 15.8072ZM60.64 15.7092C61.4681 15.7092 62.1545 15.8181 62.6992 16.036C63.2658 16.2539 63.7343 16.559 64.1047 16.9512C64.5187 17.387 64.8129 17.9318 64.9872 18.5855C65.1616 19.2392 65.2487 20.1218 65.2487 21.2331V29.9602C65.2487 30.8754 65.434 31.4964 65.8044 31.8233C66.1966 32.1502 66.8394 32.3136 67.7329 32.3136V33C67.3624 32.9782 66.7959 32.9564 66.0332 32.9346C65.2705 32.891 64.5296 32.8693 63.8106 32.8693C63.0915 32.8693 62.3833 32.891 61.686 32.9346C61.0105 32.9564 60.4984 32.9782 60.1497 33V32.3136C60.9342 32.3136 61.4899 32.1502 61.8167 31.8233C62.1436 31.4964 62.307 30.8754 62.307 29.9602V20.514C62.307 19.8385 62.2525 19.2174 62.1436 18.6509C62.0346 18.0843 61.784 17.6267 61.3918 17.2781C61.0214 16.9294 60.4439 16.7551 59.6594 16.7551C58.7442 16.7551 57.938 17.0166 57.2407 17.5396C56.5652 18.0625 56.0313 18.7816 55.6391 19.6968C55.2686 20.5902 55.0834 21.5926 55.0834 22.7039V29.9602C55.0834 30.8754 55.2468 31.4964 55.5737 31.8233C55.9006 32.1502 56.4562 32.3136 57.2407 32.3136V33C56.892 32.9782 56.3691 32.9564 55.6718 32.9346C54.9963 32.891 54.299 32.8693 53.5799 32.8693C52.8608 32.8693 52.1199 32.891 51.3572 32.9346C50.5946 32.9564 50.028 32.9782 49.6576 33V32.3136C50.551 32.3136 51.1829 32.1502 51.5533 31.8233C51.9456 31.4964 52.1417 30.8754 52.1417 29.9602V19.7295C52.1417 18.7489 51.9674 18.0299 51.6187 17.5722C51.2701 17.0929 50.6163 16.8532 49.6576 16.8532V16.1668C50.3549 16.2321 51.0304 16.2648 51.6841 16.2648C52.316 16.2648 52.9153 16.2321 53.4818 16.1668C54.0702 16.0796 54.604 15.9597 55.0834 15.8072V19.6641C55.65 18.1824 56.4344 17.1582 57.4368 16.5917C58.461 16.0033 59.5287 15.7092 60.64 15.7092ZM74.8556 39.145C73.7007 39.145 72.6112 39.0251 71.587 38.7854C70.5628 38.5457 69.7348 38.1644 69.1029 37.6414C68.4927 37.1402 68.1877 36.4974 68.1877 35.7129C68.1877 34.9503 68.4927 34.2965 69.1029 33.7518C69.713 33.207 70.541 32.793 71.587 32.5097L71.7831 33.0327C71.3037 33.1852 70.9224 33.4903 70.6391 33.9479C70.3558 34.4055 70.2142 34.9176 70.2142 35.4841C70.2142 36.4865 70.6718 37.2492 71.587 37.7721C72.524 38.3169 73.7334 38.5893 75.2151 38.5893C76.1957 38.5893 77.1545 38.4585 78.0915 38.1971C79.0285 37.9574 79.8021 37.5433 80.4122 36.955C81.0223 36.3666 81.3274 35.5931 81.3274 34.6343C81.3274 33.9152 81.0659 33.3269 80.5429 32.8693C80.0417 32.3899 79.0394 32.1502 77.5358 32.1502H75.1171C74.4198 32.1502 73.7443 32.0957 73.0905 31.9867C72.4368 31.8778 71.903 31.649 71.4889 31.3003C71.0749 30.9517 70.8679 30.4178 70.8679 29.6987C70.8679 28.9578 71.173 28.2496 71.7831 27.5741C72.3932 26.8768 73.5155 26.1686 75.1498 25.4496L75.542 25.7437C74.8011 26.136 74.1583 26.5391 73.6135 26.9531C73.0688 27.3453 72.7964 27.8138 72.7964 28.3586C72.7964 29.0559 73.3193 29.4045 74.3653 29.4045H78.451C79.3662 29.4045 80.2052 29.5353 80.9678 29.7968C81.7523 30.0583 82.3842 30.4723 82.8636 31.0388C83.343 31.6054 83.5827 32.3463 83.5827 33.2615C83.5827 34.2856 83.2559 35.2444 82.6021 36.1378C81.9484 37.0313 80.9679 37.7504 79.6604 38.2951C78.3748 38.8617 76.7732 39.145 74.8556 39.145ZM75.019 26.0379C73.9513 26.0379 72.9816 25.8636 72.11 25.5149C71.2383 25.1445 70.5519 24.5779 70.0508 23.8153C69.5496 23.0526 69.299 22.072 69.299 20.8735C69.299 19.675 69.5496 18.6945 70.0508 17.9318C70.5519 17.1691 71.2383 16.6135 72.11 16.2648C72.9816 15.8944 73.9513 15.7092 75.019 15.7092C76.1085 15.7092 77.0782 15.8944 77.9281 16.2648C78.7997 16.6135 79.4861 17.1691 79.9873 17.9318C80.4885 18.6945 80.739 19.675 80.739 20.8735C80.739 22.072 80.4885 23.0526 79.9873 23.8153C79.4861 24.5779 78.7997 25.1445 77.9281 25.5149C77.0782 25.8636 76.1085 26.0379 75.019 26.0379ZM75.019 25.4496C75.8471 25.4496 76.4899 25.1227 76.9475 24.469C77.4269 23.8153 77.6666 22.6168 77.6666 20.8735C77.6666 19.1303 77.4269 17.9318 76.9475 17.2781C76.4899 16.6244 75.8471 16.2975 75.019 16.2975C74.2128 16.2975 73.5699 16.6244 73.0905 17.2781C72.6112 17.9318 72.3715 19.1303 72.3715 20.8735C72.3715 22.6168 72.6112 23.8153 73.0905 24.469C73.5699 25.1227 74.2128 25.4496 75.019 25.4496ZM79.7258 18.4221L79.1374 18.1933C79.4425 17.4524 79.9655 16.7987 80.7064 16.2321C81.4472 15.6656 82.2208 15.3823 83.0271 15.3823C83.5936 15.3823 84.0512 15.5457 84.3999 15.8726C84.7485 16.1777 84.9228 16.6461 84.9228 17.2781C84.9228 17.9536 84.7376 18.433 84.3672 18.7163C84.0185 18.9777 83.659 19.1085 83.2885 19.1085C82.9617 19.1085 82.6566 18.9995 82.3733 18.7816C82.0901 18.5419 81.9266 18.1715 81.8831 17.6703C81.8395 17.1691 81.992 16.5263 82.3407 15.7418L82.7656 15.8399C81.8504 16.1885 81.1967 16.559 80.8044 16.9512C80.4122 17.3217 80.0526 17.8119 79.7258 18.4221ZM100.949 15.8072V29.4699C100.949 30.4505 101.124 31.1805 101.472 31.6599C101.843 32.1175 102.497 32.3463 103.434 32.3463V33.0327C102.758 32.9673 102.083 32.9346 101.407 32.9346C100.775 32.9346 100.165 32.9673 99.5766 33.0327C99.01 33.0981 98.4871 33.2179 98.0077 33.3922V29.5353C97.4629 30.9517 96.6893 31.9649 95.687 32.5751C94.7064 33.1634 93.6931 33.4576 92.6472 33.4576C91.8845 33.4576 91.2199 33.3486 90.6534 33.1307C90.0868 32.9128 89.6183 32.6078 89.2479 32.2155C88.8338 31.7797 88.5506 31.2132 88.398 30.5159C88.2455 29.8186 88.1692 28.9578 88.1692 27.9337V19.7295C88.1692 18.7489 87.9949 18.0299 87.6462 17.5722C87.2976 17.0929 86.6439 16.8532 85.6851 16.8532V16.1668C86.3824 16.2321 87.0579 16.2648 87.7116 16.2648C88.3435 16.2648 88.9428 16.2321 89.5093 16.1668C90.0977 16.0796 90.6316 15.9597 91.111 15.8072V28.6528C91.111 29.3283 91.1545 29.9493 91.2417 30.5159C91.3289 31.0824 91.5468 31.54 91.8954 31.8887C92.2441 32.2373 92.8106 32.4117 93.5951 32.4117C94.4449 32.4117 95.1967 32.1502 95.8504 31.6272C96.5259 31.1042 97.0489 30.396 97.4193 29.5026C97.8116 28.6092 98.0077 27.6068 98.0077 26.4955V19.7295C98.0077 18.7489 97.8334 18.0299 97.4847 17.5722C97.1361 17.0929 96.4823 16.8532 95.5236 16.8532V16.1668C96.2208 16.2321 96.8964 16.2648 97.5501 16.2648C98.182 16.2648 98.7812 16.2321 99.3478 16.1668C99.9361 16.0796 100.47 15.9597 100.949 15.8072ZM109.744 33.2288C108.85 33.2288 108.077 33.0654 107.423 32.7385C106.769 32.3899 106.268 31.9105 105.919 31.3003C105.593 30.6902 105.429 29.982 105.429 29.1757C105.429 28.217 105.647 27.4325 106.083 26.8224C106.54 26.2122 107.118 25.7219 107.815 25.3515C108.513 24.9811 109.243 24.676 110.005 24.4363C110.79 24.1748 111.531 23.9351 112.228 23.7172C112.925 23.4775 113.492 23.2051 113.927 22.9001C114.385 22.595 114.614 22.1919 114.614 21.6907V19.6641C114.614 18.7489 114.472 18.0516 114.189 17.5722C113.927 17.0929 113.568 16.7769 113.11 16.6244C112.653 16.45 112.141 16.3629 111.574 16.3629C111.029 16.3629 110.441 16.4391 109.809 16.5917C109.199 16.7442 108.709 17.0602 108.338 17.5396C108.752 17.6267 109.112 17.8446 109.417 18.1933C109.722 18.5419 109.874 18.9886 109.874 19.5334C109.874 20.0782 109.7 20.514 109.351 20.8408C109.003 21.1459 108.556 21.2984 108.011 21.2984C107.379 21.2984 106.911 21.1023 106.606 20.7101C106.323 20.2961 106.181 19.8385 106.181 19.3373C106.181 18.7707 106.323 18.3131 106.606 17.9645C106.889 17.6158 107.249 17.289 107.684 16.9839C108.186 16.6353 108.828 16.3411 109.613 16.1014C110.419 15.8399 111.324 15.7092 112.326 15.7092C113.219 15.7092 113.982 15.8181 114.614 16.036C115.246 16.2321 115.769 16.5263 116.183 16.9185C116.749 17.4415 117.12 18.0843 117.294 18.847C117.468 19.5879 117.556 20.4813 117.556 21.5272V30.6139C117.556 31.1587 117.632 31.5509 117.784 31.7906C117.959 32.0303 118.22 32.1502 118.569 32.1502C118.809 32.1502 119.037 32.0957 119.255 31.9867C119.473 31.8778 119.735 31.7035 120.04 31.4638L120.399 32.0194C119.942 32.3681 119.506 32.6622 119.092 32.9019C118.678 33.1198 118.122 33.2288 117.425 33.2288C116.793 33.2288 116.27 33.1198 115.856 32.9019C115.442 32.684 115.126 32.3681 114.908 31.9541C114.712 31.5182 114.614 30.9735 114.614 30.3198C114.026 31.3003 113.317 32.0303 112.489 32.5097C111.683 32.9891 110.768 33.2288 109.744 33.2288ZM110.92 31.9214C111.639 31.9214 112.304 31.7144 112.914 31.3003C113.546 30.8863 114.113 30.2653 114.614 29.4372V23.0308C114.352 23.4012 113.971 23.7172 113.47 23.9787C112.969 24.2184 112.424 24.469 111.836 24.7305C111.247 24.9702 110.681 25.2643 110.136 25.613C109.613 25.9398 109.177 26.3757 108.828 26.9204C108.48 27.4652 108.306 28.1734 108.306 29.045C108.306 29.9166 108.534 30.6139 108.992 31.1369C109.471 31.6599 110.114 31.9214 110.92 31.9214ZM137.898 9.85838V10.5121C137.157 10.5339 136.59 10.621 136.198 10.7736C135.828 10.9043 135.577 11.1658 135.446 11.558C135.316 11.9285 135.25 12.5168 135.25 13.3231V29.5353C135.25 30.3198 135.316 30.9081 135.446 31.3003C135.577 31.6926 135.828 31.9541 136.198 32.0848C136.59 32.1937 137.157 32.2482 137.898 32.2482H140.284C141.308 32.2482 142.136 32.1393 142.768 31.9214C143.422 31.7035 143.934 31.3657 144.304 30.9081C144.696 30.4287 144.991 29.7968 145.187 29.0123C145.383 28.2279 145.535 27.2691 145.644 26.136H146.396C146.331 26.8115 146.298 27.7049 146.298 28.8162C146.298 29.2302 146.309 29.8295 146.331 30.6139C146.374 31.3766 146.44 32.172 146.527 33C145.416 32.9564 144.163 32.9346 142.768 32.9346C141.373 32.9128 140.131 32.9019 139.042 32.9019C138.562 32.9019 137.941 32.9019 137.179 32.9019C136.438 32.9019 135.632 32.9128 134.76 32.9346C133.888 32.9346 133.006 32.9455 132.112 32.9673C131.219 32.9673 130.369 32.9782 129.563 33V32.3463C130.304 32.3027 130.859 32.2155 131.23 32.0848C131.622 31.9541 131.884 31.6926 132.014 31.3003C132.145 30.9081 132.21 30.3198 132.21 29.5353V13.3231C132.21 12.5168 132.145 11.9285 132.014 11.558C131.884 11.1658 131.622 10.9043 131.23 10.7736C130.859 10.621 130.304 10.5339 129.563 10.5121V9.85838C130.02 9.88017 130.62 9.90196 131.361 9.92375C132.101 9.94554 132.897 9.95643 133.747 9.95643C134.509 9.95643 135.261 9.94554 136.002 9.92375C136.765 9.90196 137.397 9.88017 137.898 9.85838ZM152.995 33.2288C152.102 33.2288 151.328 33.0654 150.674 32.7385C150.021 32.3899 149.519 31.9105 149.171 31.3003C148.844 30.6902 148.681 29.982 148.681 29.1757C148.681 28.217 148.898 27.4325 149.334 26.8224C149.792 26.2122 150.369 25.7219 151.067 25.3515C151.764 24.9811 152.494 24.676 153.257 24.4363C154.041 24.1748 154.782 23.9351 155.479 23.7172C156.177 23.4775 156.743 23.2051 157.179 22.9001C157.636 22.595 157.865 22.1919 157.865 21.6907V19.6641C157.865 18.7489 157.724 18.0516 157.44 17.5722C157.179 17.0929 156.819 16.7769 156.362 16.6244C155.904 16.45 155.392 16.3629 154.825 16.3629C154.281 16.3629 153.692 16.4391 153.06 16.5917C152.45 16.7442 151.96 17.0602 151.59 17.5396C152.004 17.6267 152.363 17.8446 152.668 18.1933C152.973 18.5419 153.126 18.9886 153.126 19.5334C153.126 20.0782 152.952 20.514 152.603 20.8408C152.254 21.1459 151.807 21.2984 151.263 21.2984C150.631 21.2984 150.162 21.1023 149.857 20.7101C149.574 20.2961 149.432 19.8385 149.432 19.3373C149.432 18.7707 149.574 18.3131 149.857 17.9645C150.141 17.6158 150.5 17.289 150.936 16.9839C151.437 16.6353 152.08 16.3411 152.864 16.1014C153.671 15.8399 154.575 15.7092 155.577 15.7092C156.471 15.7092 157.233 15.8181 157.865 16.036C158.497 16.2321 159.02 16.5263 159.434 16.9185C160.001 17.4415 160.371 18.0843 160.546 18.847C160.72 19.5879 160.807 20.4813 160.807 21.5272V30.6139C160.807 31.1587 160.883 31.5509 161.036 31.7906C161.21 32.0303 161.472 32.1502 161.82 32.1502C162.06 32.1502 162.289 32.0957 162.507 31.9867C162.725 31.8778 162.986 31.7035 163.291 31.4638L163.651 32.0194C163.193 32.3681 162.757 32.6622 162.343 32.9019C161.929 33.1198 161.374 33.2288 160.676 33.2288C160.044 33.2288 159.521 33.1198 159.107 32.9019C158.693 32.684 158.377 32.3681 158.159 31.9541C157.963 31.5182 157.865 30.9735 157.865 30.3198C157.277 31.3003 156.569 32.0303 155.741 32.5097C154.934 32.9891 154.019 33.2288 152.995 33.2288ZM154.172 31.9214C154.891 31.9214 155.555 31.7144 156.166 31.3003C156.798 30.8863 157.364 30.2653 157.865 29.4372V23.0308C157.604 23.4012 157.222 23.7172 156.721 23.9787C156.22 24.2184 155.675 24.469 155.087 24.7305C154.499 24.9702 153.932 25.2643 153.387 25.613C152.864 25.9398 152.429 26.3757 152.08 26.9204C151.731 27.4652 151.557 28.1734 151.557 29.045C151.557 29.9166 151.786 30.6139 152.243 31.1369C152.723 31.6599 153.366 31.9214 154.172 31.9214ZM179.505 7.37425V29.4372C179.505 30.4178 179.679 31.1478 180.028 31.6272C180.398 32.0848 181.052 32.3136 181.989 32.3136V33C181.314 32.9346 180.638 32.9019 179.962 32.9019C179.331 32.9019 178.72 32.9346 178.132 33C177.566 33.0654 177.043 33.1852 176.563 33.3595V11.2966C176.563 10.316 176.389 9.59689 176.04 9.13929C175.692 8.65989 175.038 8.4202 174.079 8.4202V7.73379C174.776 7.79916 175.452 7.83185 176.106 7.83185C176.737 7.83185 177.337 7.79916 177.903 7.73379C178.492 7.64663 179.025 7.52678 179.505 7.37425ZM172.641 15.7092C173.6 15.7092 174.493 15.938 175.321 16.3956C176.171 16.8532 176.737 17.6376 177.021 18.7489L176.596 19.0758C176.291 18.1606 175.811 17.496 175.158 17.082C174.526 16.6679 173.774 16.4609 172.902 16.4609C171.617 16.4609 170.538 17.1255 169.666 18.4548C168.817 19.784 168.403 21.8323 168.424 24.5997C168.424 26.3648 168.588 27.8356 168.915 29.0123C169.263 30.1672 169.764 31.0388 170.418 31.6272C171.094 32.1937 171.911 32.477 172.87 32.477C173.785 32.477 174.613 32.0848 175.354 31.3003C176.095 30.5159 176.541 29.361 176.694 27.8356L177.086 28.2932C176.912 29.9493 176.378 31.2241 175.485 32.1175C174.613 33.0109 173.425 33.4576 171.922 33.4576C170.571 33.4576 169.383 33.1307 168.359 32.477C167.357 31.8233 166.583 30.8427 166.038 29.5353C165.515 28.2279 165.254 26.5827 165.254 24.5997C165.254 22.6168 165.592 20.9716 166.267 19.6641C166.964 18.3349 167.869 17.3434 168.98 16.6897C170.113 16.036 171.333 15.7092 172.641 15.7092ZM187.351 7.99528C187.918 7.99528 188.408 8.20229 188.822 8.61631C189.236 9.03033 189.443 9.52062 189.443 10.0872C189.443 10.6537 189.236 11.144 188.822 11.558C188.408 11.9721 187.918 12.1791 187.351 12.1791C186.785 12.1791 186.294 11.9721 185.88 11.558C185.466 11.144 185.259 10.6537 185.259 10.0872C185.259 9.52062 185.466 9.03033 185.88 8.61631C186.294 8.20229 186.785 7.99528 187.351 7.99528ZM189.051 15.8072V29.9602C189.051 30.8754 189.236 31.4964 189.607 31.8233C189.999 32.1502 190.642 32.3136 191.535 32.3136V33C191.165 32.9782 190.598 32.9564 189.835 32.9346C189.095 32.891 188.343 32.8693 187.58 32.8693C186.839 32.8693 186.087 32.891 185.325 32.9346C184.562 32.9564 183.996 32.9782 183.625 33V32.3136C184.519 32.3136 185.15 32.1502 185.521 31.8233C185.913 31.4964 186.109 30.8754 186.109 29.9602V19.7295C186.109 18.7489 185.935 18.0299 185.586 17.5722C185.238 17.0929 184.584 16.8532 183.625 16.8532V16.1668C184.322 16.2321 184.998 16.2648 185.652 16.2648C186.284 16.2648 186.883 16.2321 187.449 16.1668C188.038 16.0796 188.572 15.9597 189.051 15.8072ZM201.144 15.7092C203.061 15.7092 204.554 16.2975 205.622 17.4742C206.711 18.6291 207.256 20.4377 207.256 22.9001H195.718L195.685 22.279H204.118C204.162 21.2113 204.075 20.2307 203.857 19.3373C203.639 18.4221 203.29 17.6921 202.811 17.1473C202.353 16.6026 201.754 16.3302 201.013 16.3302C200.011 16.3302 199.117 16.8314 198.333 17.8337C197.57 18.8361 197.112 20.4268 196.96 22.6059L197.058 22.7366C197.014 23.0635 196.982 23.423 196.96 23.8153C196.938 24.2075 196.927 24.5997 196.927 24.992C196.927 26.4737 197.167 27.7485 197.646 28.8162C198.126 29.8839 198.747 30.7011 199.509 31.2676C200.294 31.8124 201.1 32.0848 201.928 32.0848C202.582 32.0848 203.203 31.9867 203.791 31.7906C204.38 31.5727 204.924 31.2241 205.426 30.7447C205.927 30.2653 206.363 29.6225 206.733 28.8162L207.387 29.0777C207.147 29.7968 206.755 30.4941 206.21 31.1696C205.665 31.8451 204.979 32.4008 204.151 32.8366C203.323 33.2506 202.364 33.4576 201.274 33.4576C199.706 33.4576 198.355 33.0981 197.221 32.379C196.11 31.6599 195.249 30.6684 194.639 29.4045C194.051 28.1189 193.757 26.648 193.757 24.992C193.757 23.0744 194.062 21.4292 194.672 20.0564C195.282 18.6618 196.143 17.594 197.254 16.8532C198.365 16.0905 199.662 15.7092 201.144 15.7092ZM215.586 15.7092C216.458 15.7092 217.199 15.8508 217.809 16.1341C218.419 16.4173 218.866 16.6788 219.149 16.9185C219.868 17.5069 220.304 17.1146 220.456 15.7418H221.208C221.165 16.352 221.132 17.082 221.11 17.9318C221.088 18.7598 221.078 19.8821 221.078 21.2984H220.326C220.195 20.4922 219.966 19.7077 219.639 18.9451C219.334 18.1824 218.877 17.5614 218.267 17.082C217.656 16.5808 216.861 16.3302 215.88 16.3302C215.118 16.3302 214.475 16.5481 213.952 16.9839C213.451 17.3979 213.2 18.019 213.2 18.847C213.2 19.5007 213.396 20.0673 213.789 20.5467C214.181 21.0043 214.693 21.4401 215.325 21.8541C215.957 22.2463 216.643 22.6821 217.384 23.1615C218.212 23.6845 218.964 24.2184 219.639 24.7632C220.315 25.3079 220.849 25.9072 221.241 26.5609C221.655 27.2146 221.862 27.9882 221.862 28.8816C221.862 29.8839 221.601 30.7229 221.078 31.3984C220.555 32.0739 219.868 32.586 219.018 32.9346C218.19 33.2833 217.275 33.4576 216.273 33.4576C215.793 33.4576 215.336 33.414 214.9 33.3269C214.486 33.2615 214.083 33.1525 213.691 33C213.473 32.891 213.244 32.7603 213.004 32.6078C212.786 32.4552 212.568 32.2918 212.35 32.1175C212.132 31.9432 211.936 31.9541 211.762 32.1502C211.588 32.3245 211.457 32.684 211.37 33.2288H210.618C210.662 32.5315 210.694 31.6817 210.716 30.6793C210.738 29.6769 210.749 28.3477 210.749 26.6916H211.501C211.653 27.9119 211.871 28.9796 212.154 29.8948C212.438 30.81 212.884 31.5291 213.494 32.0521C214.105 32.5533 214.954 32.8039 216.044 32.8039C216.48 32.8039 216.916 32.7058 217.351 32.5097C217.809 32.3136 218.19 31.9867 218.495 31.5291C218.8 31.0715 218.953 30.4614 218.953 29.6987C218.953 28.7399 218.604 27.9555 217.907 27.3453C217.21 26.7352 216.327 26.0924 215.259 25.4169C214.475 24.9157 213.734 24.4145 213.037 23.9133C212.361 23.4121 211.806 22.8456 211.37 22.2136C210.956 21.5817 210.749 20.8191 210.749 19.9256C210.749 18.9451 210.967 18.1497 211.403 17.5396C211.86 16.9076 212.459 16.45 213.2 16.1668C213.941 15.8617 214.736 15.7092 215.586 15.7092Z" fill="#A71A22"/>
</svg>
