<svg width="295" height="75" viewBox="0 0 295 75" fill="none" xmlns="http://www.w3.org/2000/svg">
<path d="M9.34744 61.7734C10.1852 61.7734 10.9437 61.9659 11.6229 62.3508C12.3022 62.7244 12.8342 63.2565 13.2191 63.947C13.604 64.6376 13.7965 65.4244 13.7965 66.3074C13.7965 67.1904 13.604 67.9772 13.2191 68.6678C12.8342 69.3583 12.3022 69.8961 11.6229 70.281C10.9437 70.6659 10.1852 70.8583 9.34744 70.8583C8.60027 70.8583 7.92669 70.6999 7.32669 70.3829C6.73801 70.0659 6.26254 69.6074 5.90027 69.0074V70.7734H4.74555V58.1734H5.95122V63.5395C6.3248 62.9621 6.80027 62.5263 7.37763 62.2319C7.96631 61.9263 8.62291 61.7734 9.34744 61.7734ZM9.26254 69.7885C9.88518 69.7885 10.4512 69.647 10.9606 69.364C11.4701 69.0697 11.8663 68.6565 12.1493 68.1244C12.4437 67.5923 12.5908 66.9866 12.5908 66.3074C12.5908 65.6282 12.4437 65.0225 12.1493 64.4904C11.8663 63.9583 11.4701 63.5508 10.9606 63.2678C10.4512 62.9734 9.88518 62.8263 9.26254 62.8263C8.62857 62.8263 8.05688 62.9734 7.54744 63.2678C7.04933 63.5508 6.6531 63.9583 6.35876 64.4904C6.07574 65.0225 5.93423 65.6282 5.93423 66.3074C5.93423 66.9866 6.07574 67.5923 6.35876 68.1244C6.6531 68.6565 7.04933 69.0697 7.54744 69.364C8.05688 69.647 8.62857 69.7885 9.26254 69.7885ZM24.3033 61.8414V70.7734H23.1486V69.1432C22.8316 69.6866 22.3958 70.1112 21.841 70.4168C21.2863 70.7112 20.6524 70.8583 19.9392 70.8583C18.7731 70.8583 17.8505 70.5357 17.1712 69.8904C16.5033 69.2338 16.1693 68.2772 16.1693 67.0206V61.8414H17.375V66.9017C17.375 67.8414 17.6071 68.5546 18.0712 69.0414C18.5354 69.5282 19.1976 69.7716 20.058 69.7716C20.9976 69.7716 21.7392 69.4885 22.2826 68.9225C22.826 68.3451 23.0976 67.547 23.0976 66.5282V61.8414H24.3033ZM32.0781 70.23C31.8517 70.4338 31.5744 70.5923 31.2461 70.7055C30.9178 70.8074 30.5725 70.8583 30.2102 70.8583C29.3725 70.8583 28.7272 70.6319 28.2744 70.1791C27.8215 69.7263 27.5951 69.0866 27.5951 68.2602V59.8885H28.8008V61.8414H31.5008V62.8602H28.8008V68.1923C28.8008 68.7244 28.931 69.1319 29.1914 69.4149C29.4517 69.6866 29.831 69.8225 30.3291 69.8225C30.8725 69.8225 31.314 69.6697 31.6536 69.364L32.0781 70.23ZM41.4588 59.1074C40.938 59.1074 40.5418 59.2489 40.2701 59.5319C40.0097 59.8149 39.8795 60.2338 39.8795 60.7885V61.8414H42.6305V62.8602H39.9135V70.7734H38.7078V60.7376C38.7078 59.9225 38.9399 59.2772 39.404 58.8017C39.8795 58.3263 40.5474 58.0885 41.4078 58.0885C41.7474 58.0885 42.0757 58.1395 42.3927 58.2414C42.7097 58.3319 42.9757 58.4678 43.1908 58.6489L42.7833 59.5489C42.4323 59.2546 41.9908 59.1074 41.4588 59.1074ZM45.6191 61.8414H46.8248V70.7734H45.6191V61.8414ZM46.2305 59.8885C45.9814 59.8885 45.772 59.8036 45.6022 59.6338C45.4323 59.464 45.3474 59.2602 45.3474 59.0225C45.3474 58.7961 45.4323 58.598 45.6022 58.4282C45.772 58.2583 45.9814 58.1734 46.2305 58.1734C46.4795 58.1734 46.689 58.2583 46.8588 58.4282C47.0286 58.5866 47.1135 58.7791 47.1135 59.0055C47.1135 59.2546 47.0286 59.464 46.8588 59.6338C46.689 59.8036 46.4795 59.8885 46.2305 59.8885ZM51.3381 63.5904C51.6211 62.9904 52.04 62.5376 52.5947 62.2319C53.1607 61.9263 53.8569 61.7734 54.6834 61.7734V62.9451L54.3947 62.9282C53.4551 62.9282 52.7192 63.2168 52.1871 63.7942C51.6551 64.3716 51.389 65.181 51.389 66.2225V70.7734H50.1834V61.8414H51.3381V63.5904ZM59.327 70.8583C58.6025 70.8583 57.9063 70.7565 57.2383 70.5527C56.5817 70.3376 56.0667 70.0716 55.6931 69.7546L56.2365 68.8036C56.61 69.098 57.0799 69.3414 57.6459 69.5338C58.2119 69.7149 58.8006 69.8055 59.4119 69.8055C60.227 69.8055 60.827 69.681 61.2119 69.4319C61.6082 69.1716 61.8063 68.8093 61.8063 68.3451C61.8063 68.0168 61.6987 67.7621 61.4836 67.581C61.2685 67.3885 60.9968 67.247 60.6685 67.1565C60.3402 67.0546 59.9044 66.9583 59.361 66.8678C58.6365 66.7319 58.0534 66.5961 57.6119 66.4602C57.1704 66.3131 56.7912 66.0697 56.4742 65.73C56.1685 65.3904 56.0157 64.9206 56.0157 64.3206C56.0157 63.5734 56.327 62.9621 56.9497 62.4866C57.5723 62.0112 58.4383 61.7734 59.5478 61.7734C60.1251 61.7734 60.7025 61.8527 61.2799 62.0112C61.8572 62.1583 62.3327 62.3565 62.7063 62.6055L62.1799 63.5734C61.444 63.064 60.5667 62.8093 59.5478 62.8093C58.778 62.8093 58.195 62.9451 57.7987 63.2168C57.4138 63.4885 57.2214 63.8451 57.2214 64.2866C57.2214 64.6263 57.3289 64.898 57.544 65.1017C57.7704 65.3055 58.0478 65.4583 58.3761 65.5602C58.7044 65.6508 59.1572 65.747 59.7346 65.8489C60.4478 65.9848 61.0195 66.1206 61.4497 66.2565C61.8799 66.3923 62.2478 66.6244 62.5534 66.9527C62.8591 67.281 63.0119 67.7338 63.0119 68.3112C63.0119 69.0923 62.6836 69.7149 62.027 70.1791C61.3817 70.6319 60.4817 70.8583 59.327 70.8583ZM69.639 70.23C69.4125 70.4338 69.1352 70.5923 68.8069 70.7055C68.4786 70.8074 68.1333 70.8583 67.771 70.8583C66.9333 70.8583 66.288 70.6319 65.8352 70.1791C65.3823 69.7263 65.1559 69.0866 65.1559 68.2602V59.8885H66.3616V61.8414H69.0616V62.8602H66.3616V68.1923C66.3616 68.7244 66.4918 69.1319 66.7522 69.4149C67.0125 69.6866 67.3918 69.8225 67.8899 69.8225C68.4333 69.8225 68.8748 69.6697 69.2144 69.364L69.639 70.23ZM84.4196 58.1734V70.7734H83.2649V69.0074C82.9026 69.6074 82.4215 70.0659 81.8215 70.3829C81.2328 70.6999 80.5649 70.8583 79.8177 70.8583C78.9799 70.8583 78.2215 70.6659 77.5422 70.281C76.863 69.8961 76.3309 69.3583 75.946 68.6678C75.5611 67.9772 75.3686 67.1904 75.3686 66.3074C75.3686 65.4244 75.5611 64.6376 75.946 63.947C76.3309 63.2565 76.863 62.7244 77.5422 62.3508C78.2215 61.9659 78.9799 61.7734 79.8177 61.7734C80.5422 61.7734 81.1932 61.9263 81.7705 62.2319C82.3592 62.5263 82.8403 62.9621 83.2139 63.5395V58.1734H84.4196ZM79.9196 69.7885C80.5422 69.7885 81.1026 69.647 81.6007 69.364C82.1101 69.0697 82.5064 68.6565 82.7894 68.1244C83.0837 67.5923 83.2309 66.9866 83.2309 66.3074C83.2309 65.6282 83.0837 65.0225 82.7894 64.4904C82.5064 63.9583 82.1101 63.5508 81.6007 63.2678C81.1026 62.9734 80.5422 62.8263 79.9196 62.8263C79.2856 62.8263 78.7139 62.9734 78.2045 63.2678C77.7064 63.5508 77.3101 63.9583 77.0158 64.4904C76.7328 65.0225 76.5913 65.6282 76.5913 66.3074C76.5913 66.9866 76.7328 67.5923 77.0158 68.1244C77.3101 68.6565 77.7064 69.0697 78.2045 69.364C78.7139 69.647 79.2856 69.7885 79.9196 69.7885ZM88.932 63.5904C89.2151 62.9904 89.6339 62.5376 90.1886 62.2319C90.7547 61.9263 91.4509 61.7734 92.2773 61.7734V62.9451L91.9886 62.9282C91.049 62.9282 90.3132 63.2168 89.7811 63.7942C89.249 64.3716 88.983 65.181 88.983 66.2225V70.7734H87.7773V61.8414H88.932V63.5904ZM98.1982 69.7885C98.7529 69.7885 99.2623 69.6923 99.7265 69.4999C100.202 69.2961 100.604 69.0017 100.932 68.6168L101.611 69.398C101.215 69.8734 100.723 70.2357 100.134 70.4848C99.5453 70.7338 98.8944 70.8583 98.1812 70.8583C97.2642 70.8583 96.4491 70.6659 95.7359 70.281C95.0227 69.8848 94.468 69.3414 94.0718 68.6508C93.6755 67.9602 93.4774 67.1791 93.4774 66.3074C93.4774 65.4357 93.6642 64.6546 94.0378 63.964C94.4227 63.2734 94.9491 62.7357 95.617 62.3508C96.285 61.9659 97.0435 61.7734 97.8925 61.7734C98.685 61.7734 99.3982 61.9546 100.032 62.3168C100.677 62.6791 101.187 63.1829 101.56 63.8282C101.945 64.4734 102.149 65.2093 102.172 66.0357L94.8359 67.4621C95.0623 68.1866 95.4699 68.7583 96.0585 69.1772C96.6585 69.5848 97.3718 69.7885 98.1982 69.7885ZM97.8925 62.8093C97.2699 62.8093 96.7095 62.9565 96.2114 63.2508C95.7246 63.5338 95.3397 63.9357 95.0567 64.4565C94.785 64.9659 94.6491 65.5546 94.6491 66.2225C94.6491 66.3923 94.6548 66.5168 94.6661 66.5961L100.966 65.3734C100.83 64.6263 100.485 64.0149 99.9302 63.5395C99.3755 63.0527 98.6963 62.8093 97.8925 62.8093ZM107.02 70.8583C106.296 70.8583 105.599 70.7565 104.931 70.5527C104.275 70.3376 103.76 70.0716 103.386 69.7546L103.93 68.8036C104.303 69.098 104.773 69.3414 105.339 69.5338C105.905 69.7149 106.494 69.8055 107.105 69.8055C107.92 69.8055 108.52 69.681 108.905 69.4319C109.301 69.1716 109.499 68.8093 109.499 68.3451C109.499 68.0168 109.392 67.7621 109.177 67.581C108.962 67.3885 108.69 67.247 108.362 67.1565C108.033 67.0546 107.597 66.9583 107.054 66.8678C106.33 66.7319 105.747 66.5961 105.305 66.4602C104.864 66.3131 104.484 66.0697 104.167 65.73C103.862 65.3904 103.709 64.9206 103.709 64.3206C103.709 63.5734 104.02 62.9621 104.643 62.4866C105.265 62.0112 106.131 61.7734 107.241 61.7734C107.818 61.7734 108.396 61.8527 108.973 62.0112C109.55 62.1583 110.026 62.3565 110.399 62.6055L109.873 63.5734C109.137 63.064 108.26 62.8093 107.241 62.8093C106.471 62.8093 105.888 62.9451 105.492 63.2168C105.107 63.4885 104.914 63.8451 104.914 64.2866C104.914 64.6263 105.022 64.898 105.237 65.1017C105.464 65.3055 105.741 65.4583 106.069 65.5602C106.397 65.6508 106.85 65.747 107.428 65.8489C108.141 65.9848 108.713 66.1206 109.143 66.2565C109.573 66.3923 109.941 66.6244 110.247 66.9527C110.552 67.281 110.705 67.7338 110.705 68.3112C110.705 69.0923 110.377 69.7149 109.72 70.1791C109.075 70.6319 108.175 70.8583 107.02 70.8583ZM115.328 70.8583C114.604 70.8583 113.908 70.7565 113.24 70.5527C112.583 70.3376 112.068 70.0716 111.694 69.7546L112.238 68.8036C112.611 69.098 113.081 69.3414 113.647 69.5338C114.213 69.7149 114.802 69.8055 115.413 69.8055C116.228 69.8055 116.828 69.681 117.213 69.4319C117.609 69.1716 117.808 68.8093 117.808 68.3451C117.808 68.0168 117.7 67.7621 117.485 67.581C117.27 67.3885 116.998 67.247 116.67 67.1565C116.341 67.0546 115.906 66.9583 115.362 66.8678C114.638 66.7319 114.055 66.5961 113.613 66.4602C113.172 66.3131 112.792 66.0697 112.475 65.73C112.17 65.3904 112.017 64.9206 112.017 64.3206C112.017 63.5734 112.328 62.9621 112.951 62.4866C113.574 62.0112 114.44 61.7734 115.549 61.7734C116.126 61.7734 116.704 61.8527 117.281 62.0112C117.858 62.1583 118.334 62.3565 118.708 62.6055L118.181 63.5734C117.445 63.064 116.568 62.8093 115.549 62.8093C114.779 62.8093 114.196 62.9451 113.8 63.2168C113.415 63.4885 113.223 63.8451 113.223 64.2866C113.223 64.6263 113.33 64.898 113.545 65.1017C113.772 65.3055 114.049 65.4583 114.377 65.5602C114.706 65.6508 115.158 65.747 115.736 65.8489C116.449 65.9848 117.021 66.1206 117.451 66.2565C117.881 66.3923 118.249 66.6244 118.555 66.9527C118.86 67.281 119.013 67.7338 119.013 68.3112C119.013 69.0923 118.685 69.7149 118.028 70.1791C117.383 70.6319 116.483 70.8583 115.328 70.8583ZM133.735 61.8414V69.6866C133.735 71.2036 133.39 72.3244 132.7 73.0489C132.009 73.7848 130.968 74.1527 129.575 74.1527C128.794 74.1527 128.052 74.0282 127.351 73.7791C126.66 73.5414 126.1 73.2074 125.669 72.7772L126.281 71.8602C126.666 72.2451 127.141 72.5451 127.707 72.7602C128.273 72.9753 128.879 73.0829 129.524 73.0829C130.554 73.0829 131.313 72.8168 131.8 72.2848C132.286 71.764 132.53 70.9489 132.53 69.8395V68.8036C132.213 69.3244 131.777 69.7263 131.222 70.0093C130.679 70.2923 130.062 70.4338 129.371 70.4338C128.205 70.4338 127.283 70.1112 126.603 69.4659C125.935 68.8093 125.601 67.8527 125.601 66.5961V61.8414H126.807V66.4772C126.807 67.4168 127.039 68.13 127.503 68.6168C127.968 69.1036 128.63 69.347 129.49 69.347C130.43 69.347 131.171 69.064 131.715 68.498C132.258 67.9206 132.53 67.1225 132.53 66.1036V61.8414H133.735ZM140.763 70.8583C139.903 70.8583 139.127 70.6659 138.437 70.281C137.746 69.8848 137.203 69.3414 136.807 68.6508C136.41 67.9602 136.212 67.1791 136.212 66.3074C136.212 65.4357 136.41 64.6546 136.807 63.964C137.203 63.2734 137.746 62.7357 138.437 62.3508C139.127 61.9659 139.903 61.7734 140.763 61.7734C141.623 61.7734 142.399 61.9659 143.09 62.3508C143.78 62.7357 144.318 63.2734 144.703 63.964C145.099 64.6546 145.297 65.4357 145.297 66.3074C145.297 67.1791 145.099 67.9602 144.703 68.6508C144.318 69.3414 143.78 69.8848 143.09 70.281C142.399 70.6659 141.623 70.8583 140.763 70.8583ZM140.763 69.7885C141.397 69.7885 141.963 69.647 142.461 69.364C142.971 69.0697 143.367 68.6565 143.65 68.1244C143.933 67.5923 144.074 66.9866 144.074 66.3074C144.074 65.6282 143.933 65.0225 143.65 64.4904C143.367 63.9583 142.971 63.5508 142.461 63.2678C141.963 62.9734 141.397 62.8263 140.763 62.8263C140.129 62.8263 139.557 62.9734 139.048 63.2678C138.55 63.5508 138.154 63.9583 137.859 64.4904C137.576 65.0225 137.435 65.6282 137.435 66.3074C137.435 66.9866 137.576 67.5923 137.859 68.1244C138.154 68.6565 138.55 69.0697 139.048 69.364C139.557 69.647 140.129 69.7885 140.763 69.7885ZM155.808 61.8414V70.7734H154.653V69.1432C154.336 69.6866 153.9 70.1112 153.345 70.4168C152.791 70.7112 152.157 70.8583 151.443 70.8583C150.277 70.8583 149.355 70.5357 148.676 69.8904C148.008 69.2338 147.674 68.2772 147.674 67.0206V61.8414H148.879V66.9017C148.879 67.8414 149.111 68.5546 149.576 69.0414C150.04 69.5282 150.702 69.7716 151.562 69.7716C152.502 69.7716 153.243 69.4885 153.787 68.9225C154.33 68.3451 154.602 67.547 154.602 66.5282V61.8414H155.808ZM160.339 63.5904C160.622 62.9904 161.041 62.5376 161.596 62.2319C162.162 61.9263 162.858 61.7734 163.684 61.7734V62.9451L163.396 62.9282C162.456 62.9282 161.72 63.2168 161.188 63.7942C160.656 64.3716 160.39 65.181 160.39 66.2225V70.7734H159.184V61.8414H160.339V63.5904ZM168.328 70.8583C167.603 70.8583 166.907 70.7565 166.239 70.5527C165.583 70.3376 165.068 70.0716 164.694 69.7546L165.237 68.8036C165.611 69.098 166.081 69.3414 166.647 69.5338C167.213 69.7149 167.802 69.8055 168.413 69.8055C169.228 69.8055 169.828 69.681 170.213 69.4319C170.609 69.1716 170.807 68.8093 170.807 68.3451C170.807 68.0168 170.7 67.7621 170.485 67.581C170.269 67.3885 169.998 67.247 169.669 67.1565C169.341 67.0546 168.905 66.9583 168.362 66.8678C167.637 66.7319 167.054 66.5961 166.613 66.4602C166.171 66.3131 165.792 66.0697 165.475 65.73C165.169 65.3904 165.017 64.9206 165.017 64.3206C165.017 63.5734 165.328 62.9621 165.951 62.4866C166.573 62.0112 167.439 61.7734 168.549 61.7734C169.126 61.7734 169.703 61.8527 170.281 62.0112C170.858 62.1583 171.334 62.3565 171.707 62.6055L171.181 63.5734C170.445 63.064 169.568 62.8093 168.549 62.8093C167.779 62.8093 167.196 62.9451 166.8 63.2168C166.415 63.4885 166.222 63.8451 166.222 64.2866C166.222 64.6263 166.33 64.898 166.545 65.1017C166.771 65.3055 167.049 65.4583 167.377 65.5602C167.705 65.6508 168.158 65.747 168.736 65.8489C169.449 65.9848 170.02 66.1206 170.451 66.2565C170.881 66.3923 171.249 66.6244 171.554 66.9527C171.86 67.281 172.013 67.7338 172.013 68.3112C172.013 69.0923 171.685 69.7149 171.028 70.1791C170.383 70.6319 169.483 70.8583 168.328 70.8583ZM178.063 69.7885C178.617 69.7885 179.127 69.6923 179.591 69.4999C180.066 69.2961 180.468 69.0017 180.797 68.6168L181.476 69.398C181.08 69.8734 180.587 70.2357 179.998 70.4848C179.41 70.7338 178.759 70.8583 178.046 70.8583C177.129 70.8583 176.313 70.6659 175.6 70.281C174.887 69.8848 174.332 69.3414 173.936 68.6508C173.54 67.9602 173.342 67.1791 173.342 66.3074C173.342 65.4357 173.529 64.6546 173.902 63.964C174.287 63.2734 174.813 62.7357 175.481 62.3508C176.149 61.9659 176.908 61.7734 177.757 61.7734C178.549 61.7734 179.263 61.9546 179.897 62.3168C180.542 62.6791 181.051 63.1829 181.425 63.8282C181.81 64.4734 182.014 65.2093 182.036 66.0357L174.7 67.4621C174.927 68.1866 175.334 68.7583 175.923 69.1772C176.523 69.5848 177.236 69.7885 178.063 69.7885ZM177.757 62.8093C177.134 62.8093 176.574 62.9565 176.076 63.2508C175.589 63.5338 175.204 63.9357 174.921 64.4565C174.649 64.9659 174.513 65.5546 174.513 66.2225C174.513 66.3923 174.519 66.5168 174.53 66.5961L180.83 65.3734C180.695 64.6263 180.349 64.0149 179.795 63.5395C179.24 63.0527 178.561 62.8093 177.757 62.8093ZM187.003 70.8583C186.2 70.8583 185.577 70.6319 185.135 70.1791C184.705 69.7263 184.49 69.098 184.49 68.2942V58.1734H185.696V68.1923C185.696 68.7244 185.82 69.1319 186.069 69.4149C186.318 69.6866 186.692 69.8225 187.19 69.8225C187.507 69.8225 187.779 69.7716 188.005 69.6697L188.09 70.6716C187.739 70.7961 187.377 70.8583 187.003 70.8583ZM192.481 59.1074C191.961 59.1074 191.564 59.2489 191.293 59.5319C191.032 59.8149 190.902 60.2338 190.902 60.7885V61.8414H193.653V62.8602H190.936V70.7734H189.73V60.7376C189.73 59.9225 189.963 59.2772 190.427 58.8017C190.902 58.3263 191.57 58.0885 192.43 58.0885C192.77 58.0885 193.098 58.1395 193.415 58.2414C193.732 58.3319 193.998 58.4678 194.213 58.6489L193.806 59.5489C193.455 59.2546 193.013 59.1074 192.481 59.1074ZM199.73 61.8414H200.936V70.7734H199.73V61.8414ZM200.341 59.8885C200.092 59.8885 199.883 59.8036 199.713 59.6338C199.543 59.464 199.458 59.2602 199.458 59.0225C199.458 58.7961 199.543 58.598 199.713 58.4282C199.883 58.2583 200.092 58.1734 200.341 58.1734C200.59 58.1734 200.8 58.2583 200.97 58.4282C201.14 58.5866 201.224 58.7791 201.224 59.0055C201.224 59.2546 201.14 59.464 200.97 59.6338C200.8 59.8036 200.59 59.8885 200.341 59.8885ZM208.841 61.7734C209.962 61.7734 210.851 62.1017 211.507 62.7583C212.175 63.4036 212.509 64.3489 212.509 65.5942V70.7734H211.304V65.7131C211.304 64.7848 211.072 64.0772 210.607 63.5904C210.143 63.1036 209.481 62.8602 208.621 62.8602C207.658 62.8602 206.894 63.1489 206.328 63.7263C205.773 64.2923 205.496 65.0791 205.496 66.0866V70.7734H204.29V61.8414H205.445V63.4885C205.773 62.9451 206.226 62.5263 206.804 62.2319C207.392 61.9263 208.072 61.7734 208.841 61.7734ZM223.538 66.2904L221.433 68.2263V70.7734H220.227V58.1734H221.433V66.7149L226.765 61.8414H228.259L224.438 65.4923L228.616 70.7734H227.138L223.538 66.2904ZM230.293 61.8414H231.498V70.7734H230.293V61.8414ZM230.904 59.8885C230.655 59.8885 230.446 59.8036 230.276 59.6338C230.106 59.464 230.021 59.2602 230.021 59.0225C230.021 58.7961 230.106 58.598 230.276 58.4282C230.446 58.2583 230.655 58.1734 230.904 58.1734C231.153 58.1734 231.363 58.2583 231.532 58.4282C231.702 58.5866 231.787 58.7791 231.787 59.0055C231.787 59.2546 231.702 59.464 231.532 59.6338C231.363 59.8036 231.153 59.8885 230.904 59.8885ZM239.404 61.7734C240.525 61.7734 241.414 62.1017 242.07 62.7583C242.738 63.4036 243.072 64.3489 243.072 65.5942V70.7734H241.866V65.7131C241.866 64.7848 241.634 64.0772 241.17 63.5904C240.706 63.1036 240.044 62.8602 239.183 62.8602C238.221 62.8602 237.457 63.1489 236.891 63.7263C236.336 64.2923 236.059 65.0791 236.059 66.0866V70.7734H234.853V61.8414H236.008V63.4885C236.336 62.9451 236.789 62.5263 237.366 62.2319C237.955 61.9263 238.634 61.7734 239.404 61.7734ZM254.529 58.1734V70.7734H253.375V69.0074C253.012 69.6074 252.531 70.0659 251.931 70.3829C251.343 70.6999 250.675 70.8583 249.928 70.8583C249.09 70.8583 248.331 70.6659 247.652 70.281C246.973 69.8961 246.441 69.3583 246.056 68.6678C245.671 67.9772 245.478 67.1904 245.478 66.3074C245.478 65.4244 245.671 64.6376 246.056 63.947C246.441 63.2565 246.973 62.7244 247.652 62.3508C248.331 61.9659 249.09 61.7734 249.928 61.7734C250.652 61.7734 251.303 61.9263 251.88 62.2319C252.469 62.5263 252.95 62.9621 253.324 63.5395V58.1734H254.529ZM250.029 69.7885C250.652 69.7885 251.212 69.647 251.711 69.364C252.22 69.0697 252.616 68.6565 252.899 68.1244C253.194 67.5923 253.341 66.9866 253.341 66.3074C253.341 65.6282 253.194 65.0225 252.899 64.4904C252.616 63.9583 252.22 63.5508 251.711 63.2678C251.212 62.9734 250.652 62.8263 250.029 62.8263C249.395 62.8263 248.824 62.9734 248.314 63.2678C247.816 63.5508 247.42 63.9583 247.126 64.4904C246.843 65.0225 246.701 65.6282 246.701 66.3074C246.701 66.9866 246.843 67.5923 247.126 68.1244C247.42 68.6565 247.816 69.0697 248.314 69.364C248.824 69.647 249.395 69.7885 250.029 69.7885ZM262.438 61.7734C263.559 61.7734 264.448 62.1017 265.104 62.7583C265.772 63.4036 266.106 64.3489 266.106 65.5942V70.7734H264.9V65.7131C264.9 64.7848 264.668 64.0772 264.204 63.5904C263.74 63.1036 263.078 62.8602 262.217 62.8602C261.255 62.8602 260.491 63.1489 259.925 63.7263C259.37 64.2923 259.093 65.0791 259.093 66.0866V70.7734H257.887V61.8414H259.042V63.4885C259.37 62.9451 259.823 62.5263 260.4 62.2319C260.989 61.9263 261.668 61.7734 262.438 61.7734ZM273.233 69.7885C273.788 69.7885 274.297 69.6923 274.761 69.4999C275.237 69.2961 275.639 69.0017 275.967 68.6168L276.646 69.398C276.25 69.8734 275.758 70.2357 275.169 70.4848C274.58 70.7338 273.929 70.8583 273.216 70.8583C272.299 70.8583 271.484 70.6659 270.771 70.281C270.058 69.8848 269.503 69.3414 269.107 68.6508C268.711 67.9602 268.512 67.1791 268.512 66.3074C268.512 65.4357 268.699 64.6546 269.073 63.964C269.458 63.2734 269.984 62.7357 270.652 62.3508C271.32 61.9659 272.078 61.7734 272.928 61.7734C273.72 61.7734 274.433 61.9546 275.067 62.3168C275.712 62.6791 276.222 63.1829 276.595 63.8282C276.98 64.4734 277.184 65.2093 277.207 66.0357L269.871 67.4621C270.097 68.1866 270.505 68.7583 271.094 69.1772C271.694 69.5848 272.407 69.7885 273.233 69.7885ZM272.928 62.8093C272.305 62.8093 271.745 62.9565 271.246 63.2508C270.76 63.5338 270.375 63.9357 270.092 64.4565C269.82 64.9659 269.684 65.5546 269.684 66.2225C269.684 66.3923 269.69 66.5168 269.701 66.5961L276.001 65.3734C275.865 64.6263 275.52 64.0149 274.965 63.5395C274.411 63.0527 273.731 62.8093 272.928 62.8093ZM282.055 70.8583C281.331 70.8583 280.634 70.7565 279.966 70.5527C279.31 70.3376 278.795 70.0716 278.421 69.7546L278.965 68.8036C279.338 69.098 279.808 69.3414 280.374 69.5338C280.94 69.7149 281.529 69.8055 282.14 69.8055C282.955 69.8055 283.555 69.681 283.94 69.4319C284.336 69.1716 284.534 68.8093 284.534 68.3451C284.534 68.0168 284.427 67.7621 284.212 67.581C283.997 67.3885 283.725 67.247 283.397 67.1565C283.068 67.0546 282.633 66.9583 282.089 66.8678C281.365 66.7319 280.782 66.5961 280.34 66.4602C279.899 66.3131 279.519 66.0697 279.202 65.73C278.897 65.3904 278.744 64.9206 278.744 64.3206C278.744 63.5734 279.055 62.9621 279.678 62.4866C280.3 62.0112 281.166 61.7734 282.276 61.7734C282.853 61.7734 283.431 61.8527 284.008 62.0112C284.585 62.1583 285.061 62.3565 285.434 62.6055L284.908 63.5734C284.172 63.064 283.295 62.8093 282.276 62.8093C281.506 62.8093 280.923 62.9451 280.527 63.2168C280.142 63.4885 279.949 63.8451 279.949 64.2866C279.949 64.6263 280.057 64.898 280.272 65.1017C280.499 65.3055 280.776 65.4583 281.104 65.5602C281.433 65.6508 281.885 65.747 282.463 65.8489C283.176 65.9848 283.748 66.1206 284.178 66.2565C284.608 66.3923 284.976 66.6244 285.282 66.9527C285.587 67.281 285.74 67.7338 285.74 68.3112C285.74 69.0923 285.412 69.7149 284.755 70.1791C284.11 70.6319 283.21 70.8583 282.055 70.8583ZM290.363 70.8583C289.639 70.8583 288.943 70.7565 288.275 70.5527C287.618 70.3376 287.103 70.0716 286.729 69.7546L287.273 68.8036C287.646 69.098 288.116 69.3414 288.682 69.5338C289.248 69.7149 289.837 69.8055 290.448 69.8055C291.263 69.8055 291.863 69.681 292.248 69.4319C292.644 69.1716 292.843 68.8093 292.843 68.3451C292.843 68.0168 292.735 67.7621 292.52 67.581C292.305 67.3885 292.033 67.247 291.705 67.1565C291.376 67.0546 290.941 66.9583 290.397 66.8678C289.673 66.7319 289.09 66.5961 288.648 66.4602C288.207 66.3131 287.827 66.0697 287.51 65.73C287.205 65.3904 287.052 64.9206 287.052 64.3206C287.052 63.5734 287.363 62.9621 287.986 62.4866C288.609 62.0112 289.475 61.7734 290.584 61.7734C291.161 61.7734 291.739 61.8527 292.316 62.0112C292.893 62.1583 293.369 62.3565 293.743 62.6055L293.216 63.5734C292.48 63.064 291.603 62.8093 290.584 62.8093C289.814 62.8093 289.231 62.9451 288.835 63.2168C288.45 63.4885 288.258 63.8451 288.258 64.2866C288.258 64.6263 288.365 64.898 288.58 65.1017C288.807 65.3055 289.084 65.4583 289.412 65.5602C289.741 65.6508 290.193 65.747 290.771 65.8489C291.484 65.9848 292.056 66.1206 292.486 66.2565C292.916 66.3923 293.284 66.6244 293.59 66.9527C293.895 67.281 294.048 67.7338 294.048 68.3112C294.048 69.0923 293.72 69.7149 293.063 70.1791C292.418 70.6319 291.518 70.8583 290.363 70.8583Z" fill="#2B2B2B"/>
<path d="M1.78302 12.9434C2.37736 12.9717 3.15566 13 4.11792 13.0283C5.08019 13.0566 6.0283 13.0708 6.96226 13.0708C8.29245 13.0708 9.56604 13.0566 10.783 13.0283C12 13 12.8632 12.9858 13.3726 12.9858C16.3443 12.9858 18.5802 13.6085 20.0802 14.8538C21.5802 16.0991 22.3302 17.6981 22.3302 19.6509C22.3302 20.6415 22.1179 21.6179 21.6934 22.5802C21.2972 23.5141 20.6179 24.3774 19.6557 25.1698C18.7217 25.934 17.4623 26.5566 15.8774 27.0377V27.1226C18.1132 27.4057 19.8538 27.9434 21.0991 28.7358C22.3726 29.5 23.2642 30.4057 23.7736 31.4528C24.283 32.5 24.5377 33.6038 24.5377 34.7642C24.5377 36.3774 24.1274 37.8066 23.3066 39.0519C22.5142 40.2689 21.3538 41.2311 19.8255 41.9387C18.2972 42.6462 16.4717 43 14.3491 43C13.7264 43 12.7925 42.9858 11.5472 42.9575C10.3019 42.9009 8.80189 42.8726 7.04717 42.8726C6.0566 42.8726 5.08019 42.8868 4.11792 42.9151C3.15566 42.9151 2.37736 42.9434 1.78302 43V42.1509C2.74528 42.0943 3.46698 41.9811 3.94811 41.8113C4.45755 41.6415 4.79717 41.3019 4.96698 40.7925C5.13679 40.283 5.2217 39.5189 5.2217 38.5V17.4434C5.2217 16.3962 5.13679 15.6321 4.96698 15.1509C4.79717 14.6415 4.45755 14.3019 3.94811 14.1321C3.46698 13.934 2.74528 13.8208 1.78302 13.7925V12.9434ZM12.3113 13.7925C11.0094 13.7925 10.1604 14.033 9.76415 14.5142C9.36792 14.9953 9.16981 15.9717 9.16981 17.4434V38.5C9.16981 39.4906 9.25472 40.2406 9.42453 40.75C9.59434 41.2594 9.90566 41.5991 10.3585 41.7689C10.8113 41.9387 11.4764 42.0236 12.3538 42.0236C15.1274 42.0236 17.1368 41.3868 18.3821 40.1132C19.6557 38.8113 20.2925 36.9717 20.2925 34.5943C20.2925 32.4151 19.6981 30.7311 18.5094 29.5425C17.3491 28.3538 15.4245 27.7594 12.7358 27.7594H8.36321C8.36321 27.7594 8.36321 27.6462 8.36321 27.4198C8.36321 27.1651 8.36321 27.0377 8.36321 27.0377H12.0142C13.684 27.0377 14.9717 26.7264 15.8774 26.1038C16.783 25.4528 17.4057 24.6038 17.7453 23.5566C18.0849 22.4811 18.2547 21.3349 18.2547 20.1179C18.2547 18.0236 17.7877 16.4528 16.8538 15.4057C15.9481 14.3302 14.434 13.7925 12.3113 13.7925ZM32.3136 10.5236C33.0494 10.5236 33.6862 10.7925 34.2239 11.3302C34.7617 11.8679 35.0306 12.5047 35.0306 13.2406C35.0306 13.9764 34.7617 14.6132 34.2239 15.1509C33.6862 15.6887 33.0494 15.9575 32.3136 15.9575C31.5777 15.9575 30.9409 15.6887 30.4032 15.1509C29.8655 14.6132 29.5966 13.9764 29.5966 13.2406C29.5966 12.5047 29.8655 11.8679 30.4032 11.3302C30.9409 10.7925 31.5777 10.5236 32.3136 10.5236ZM34.5211 20.6698V39.0519C34.5211 40.2406 34.7617 41.0472 35.2428 41.4717C35.7522 41.8962 36.5872 42.1085 37.7475 42.1085V43C37.2664 42.9717 36.5306 42.9434 35.54 42.9151C34.5777 42.8585 33.6013 42.8302 32.6107 42.8302C31.6485 42.8302 30.6721 42.8585 29.6815 42.9151C28.6909 42.9434 27.9551 42.9717 27.4739 43V42.1085C28.6343 42.1085 29.4551 41.8962 29.9362 41.4717C30.4456 41.0472 30.7004 40.2406 30.7004 39.0519V25.7641C30.7004 24.4906 30.4739 23.5566 30.0211 22.9623C29.5683 22.3396 28.7192 22.0283 27.4739 22.0283V21.1368C28.3796 21.2217 29.257 21.2641 30.106 21.2641C30.9268 21.2641 31.7051 21.2217 32.4409 21.1368C33.2051 21.0236 33.8985 20.8679 34.5211 20.6698ZM46.6613 9.71698V39.0519C46.6613 40.2406 46.9019 41.0472 47.383 41.4717C47.8924 41.8962 48.7273 42.1085 49.8877 42.1085V43C49.4066 42.9717 48.6707 42.9434 47.6802 42.9151C46.7179 42.8585 45.7415 42.8302 44.7509 42.8302C43.7887 42.8302 42.8122 42.8585 41.8217 42.9151C40.8311 42.9434 40.0953 42.9717 39.6141 43V42.1085C40.7745 42.1085 41.5953 41.8962 42.0764 41.4717C42.5858 41.0472 42.8405 40.2406 42.8405 39.0519V14.8113C42.8405 13.5377 42.6141 12.6038 42.1613 12.0094C41.7085 11.3868 40.8594 11.0755 39.6141 11.0755V10.184C40.5198 10.2689 41.3971 10.3113 42.2462 10.3113C43.067 10.3113 43.8453 10.2689 44.5811 10.184C45.3453 10.0708 46.0387 9.91509 46.6613 9.71698ZM56.8981 10.5236C57.6339 10.5236 58.2707 10.7925 58.8084 11.3302C59.3462 11.8679 59.6151 12.5047 59.6151 13.2406C59.6151 13.9764 59.3462 14.6132 58.8084 15.1509C58.2707 15.6887 57.6339 15.9575 56.8981 15.9575C56.1622 15.9575 55.5254 15.6887 54.9877 15.1509C54.45 14.6132 54.1811 13.9764 54.1811 13.2406C54.1811 12.5047 54.45 11.8679 54.9877 11.3302C55.5254 10.7925 56.1622 10.5236 56.8981 10.5236ZM59.1056 20.6698V39.0519C59.1056 40.2406 59.3462 41.0472 59.8273 41.4717C60.3368 41.8962 61.1717 42.1085 62.332 42.1085V43C61.8509 42.9717 61.1151 42.9434 60.1245 42.9151C59.1622 42.8585 58.1858 42.8302 57.1952 42.8302C56.233 42.8302 55.2566 42.8585 54.266 42.9151C53.2754 42.9434 52.5396 42.9717 52.0584 43V42.1085C53.2188 42.1085 54.0396 41.8962 54.5207 41.4717C55.0301 41.0472 55.2849 40.2406 55.2849 39.0519V25.7641C55.2849 24.4906 55.0584 23.5566 54.6056 22.9623C54.1528 22.3396 53.3037 22.0283 52.0584 22.0283V21.1368C52.9641 21.2217 53.8415 21.2641 54.6905 21.2641C55.5113 21.2641 56.2896 21.2217 57.0254 21.1368C57.7896 21.0236 58.483 20.8679 59.1056 20.6698ZM78.76 20.5425C79.8354 20.5425 80.7269 20.684 81.4345 20.967C82.1703 21.25 82.7788 21.6462 83.26 22.1557C83.7977 22.7217 84.1798 23.4292 84.4062 24.2783C84.6326 25.1274 84.7458 26.2736 84.7458 27.717V39.0519C84.7458 40.2406 84.9864 41.0472 85.4675 41.4717C85.9769 41.8962 86.8118 42.1085 87.9722 42.1085V43C87.4911 42.9717 86.7552 42.9434 85.7647 42.9151C84.7741 42.8585 83.8118 42.8302 82.8779 42.8302C81.9439 42.8302 81.0241 42.8585 80.1184 42.9151C79.2411 42.9434 78.576 42.9717 78.1232 43V42.1085C79.142 42.1085 79.8637 41.8962 80.2883 41.4717C80.7128 41.0472 80.925 40.2406 80.925 39.0519V26.783C80.925 25.9057 80.8543 25.0991 80.7128 24.3632C80.5713 23.6274 80.2458 23.033 79.7364 22.5802C79.2552 22.1274 78.5052 21.9009 77.4864 21.9009C76.2977 21.9009 75.2505 22.2406 74.3449 22.9198C73.4675 23.5991 72.7741 24.533 72.2647 25.7217C71.7835 26.8821 71.543 28.184 71.543 29.6274V39.0519C71.543 40.2406 71.7552 41.0472 72.1798 41.4717C72.6043 41.8962 73.326 42.1085 74.3449 42.1085V43C73.892 42.9717 73.2128 42.9434 72.3071 42.9151C71.4298 42.8585 70.5241 42.8302 69.5901 42.8302C68.6562 42.8302 67.6939 42.8585 66.7034 42.9151C65.7128 42.9434 64.9769 42.9717 64.4958 43V42.1085C65.6562 42.1085 66.4769 41.8962 66.9581 41.4717C67.4675 41.0472 67.7222 40.2406 67.7222 39.0519V25.7641C67.7222 24.4906 67.4958 23.5566 67.043 22.9623C66.5901 22.3396 65.7411 22.0283 64.4958 22.0283V21.1368C65.4015 21.2217 66.2788 21.2641 67.1279 21.2641C67.9486 21.2641 68.7269 21.2217 69.4628 21.1368C70.2269 21.0236 70.9203 20.8679 71.543 20.6698V25.6792C72.2788 23.7547 73.2977 22.4245 74.5996 21.6887C75.9298 20.9245 77.3166 20.5425 78.76 20.5425ZM97.2233 50.9811C95.7233 50.9811 94.3082 50.8255 92.978 50.5142C91.6478 50.2028 90.5723 49.7075 89.7516 49.0283C88.9591 48.3774 88.5629 47.5425 88.5629 46.5236C88.5629 45.533 88.9591 44.684 89.7516 43.9764C90.544 43.2689 91.6195 42.7311 92.978 42.3632L93.2327 43.0425C92.6101 43.2406 92.1148 43.6368 91.7469 44.2311C91.3789 44.8255 91.195 45.4906 91.195 46.2264C91.195 47.5283 91.7893 48.5189 92.978 49.1981C94.195 49.9057 95.7657 50.2594 97.6903 50.2594C98.9639 50.2594 100.209 50.0896 101.426 49.75C102.643 49.4387 103.648 48.9009 104.44 48.1368C105.233 47.3726 105.629 46.3679 105.629 45.1226C105.629 44.1887 105.289 43.4245 104.61 42.8302C103.959 42.2075 102.657 41.8962 100.704 41.8962H97.5629C96.6572 41.8962 95.7799 41.8255 94.9308 41.684C94.0818 41.5425 93.3884 41.2453 92.8506 40.7925C92.3129 40.3396 92.044 39.6462 92.044 38.7123C92.044 37.75 92.4403 36.8302 93.2327 35.9528C94.0252 35.0472 95.4827 34.1274 97.6054 33.1934L98.1148 33.5755C97.1525 34.0849 96.3176 34.6085 95.6101 35.1462C94.9025 35.6557 94.5488 36.2642 94.5488 36.9717C94.5488 37.8774 95.228 38.3302 96.5865 38.3302H101.893C103.082 38.3302 104.171 38.5 105.162 38.8396C106.181 39.1792 107.002 39.717 107.624 40.4528C108.247 41.1887 108.558 42.1509 108.558 43.3396C108.558 44.6698 108.134 45.9151 107.285 47.0755C106.436 48.2358 105.162 49.1698 103.464 49.8774C101.794 50.6132 99.7139 50.9811 97.2233 50.9811ZM97.4355 33.9575C96.0488 33.9575 94.7893 33.7311 93.6572 33.2783C92.5252 32.7972 91.6337 32.0613 90.9827 31.0708C90.3318 30.0802 90.0063 28.8066 90.0063 27.25C90.0063 25.6934 90.3318 24.4198 90.9827 23.4292C91.6337 22.4387 92.5252 21.717 93.6572 21.2641C94.7893 20.783 96.0488 20.5425 97.4355 20.5425C98.8506 20.5425 100.11 20.783 101.214 21.2641C102.346 21.717 103.237 22.4387 103.888 23.4292C104.539 24.4198 104.865 25.6934 104.865 27.25C104.865 28.8066 104.539 30.0802 103.888 31.0708C103.237 32.0613 102.346 32.7972 101.214 33.2783C100.11 33.7311 98.8506 33.9575 97.4355 33.9575ZM97.4355 33.1934C98.511 33.1934 99.3459 32.7689 99.9403 31.9198C100.563 31.0708 100.874 29.5142 100.874 27.25C100.874 24.9858 100.563 23.4292 99.9403 22.5802C99.3459 21.7311 98.511 21.3066 97.4355 21.3066C96.3884 21.3066 95.5535 21.7311 94.9308 22.5802C94.3082 23.4292 93.9969 24.9858 93.9969 27.25C93.9969 29.5142 94.3082 31.0708 94.9308 31.9198C95.5535 32.7689 96.3884 33.1934 97.4355 33.1934ZM103.549 24.066L102.785 23.7689C103.181 22.8066 103.86 21.9575 104.822 21.2217C105.785 20.4858 106.789 20.1179 107.836 20.1179C108.572 20.1179 109.167 20.3302 109.62 20.7547C110.072 21.1509 110.299 21.7594 110.299 22.5802C110.299 23.4575 110.058 24.0802 109.577 24.4481C109.124 24.7877 108.657 24.9575 108.176 24.9575C107.752 24.9575 107.355 24.816 106.987 24.533C106.62 24.2217 106.407 23.7406 106.351 23.0896C106.294 22.4387 106.492 21.6038 106.945 20.5849L107.497 20.7123C106.308 21.1651 105.459 21.6462 104.95 22.1557C104.44 22.6368 103.973 23.2736 103.549 24.066ZM131.114 20.6698V38.4151C131.114 39.6887 131.341 40.6368 131.793 41.2594C132.275 41.8538 133.124 42.1509 134.341 42.1509V43.0425C133.463 42.9575 132.586 42.9151 131.709 42.9151C130.888 42.9151 130.095 42.9575 129.331 43.0425C128.595 43.1274 127.916 43.283 127.293 43.5094V38.5C126.586 40.3396 125.581 41.6557 124.279 42.4481C123.006 43.2123 121.69 43.5943 120.331 43.5943C119.341 43.5943 118.477 43.4528 117.742 43.1698C117.006 42.8868 116.397 42.4906 115.916 41.9811C115.378 41.4151 115.01 40.6792 114.812 39.7736C114.614 38.8679 114.515 37.75 114.515 36.4198V25.7641C114.515 24.4906 114.289 23.5566 113.836 22.9623C113.383 22.3396 112.534 22.0283 111.289 22.0283V21.1368C112.194 21.2217 113.072 21.2641 113.921 21.2641C114.742 21.2641 115.52 21.2217 116.256 21.1368C117.02 21.0236 117.713 20.8679 118.336 20.6698V37.3538C118.336 38.2311 118.393 39.0377 118.506 39.7736C118.619 40.5094 118.902 41.1038 119.355 41.5566C119.808 42.0094 120.543 42.2358 121.562 42.2358C122.666 42.2358 123.643 41.8962 124.492 41.217C125.369 40.5377 126.048 39.6179 126.529 38.4575C127.039 37.2972 127.293 35.9953 127.293 34.5519V25.7641C127.293 24.4906 127.067 23.5566 126.614 22.9623C126.161 22.3396 125.312 22.0283 124.067 22.0283V21.1368C124.973 21.2217 125.85 21.2641 126.699 21.2641C127.52 21.2641 128.298 21.2217 129.034 21.1368C129.798 21.0236 130.492 20.8679 131.114 20.6698ZM142.536 43.2972C141.376 43.2972 140.371 43.0849 139.522 42.6604C138.673 42.2075 138.022 41.5849 137.569 40.7925C137.145 40 136.933 39.0802 136.933 38.033C136.933 36.7877 137.216 35.7689 137.782 34.9764C138.376 34.184 139.126 33.5472 140.032 33.066C140.937 32.5849 141.885 32.1887 142.876 31.8774C143.895 31.5377 144.857 31.2264 145.763 30.9434C146.668 30.6321 147.404 30.2783 147.97 29.8821C148.565 29.4858 148.862 28.9623 148.862 28.3113V25.6792C148.862 24.4906 148.678 23.5849 148.31 22.9623C147.97 22.3396 147.503 21.9292 146.909 21.7311C146.315 21.5047 145.65 21.3915 144.914 21.3915C144.206 21.3915 143.442 21.4906 142.621 21.6887C141.829 21.8868 141.192 22.2972 140.711 22.9198C141.249 23.033 141.716 23.316 142.112 23.7689C142.508 24.2217 142.706 24.8019 142.706 25.5094C142.706 26.217 142.48 26.783 142.027 27.2075C141.574 27.6038 140.994 27.8019 140.286 27.8019C139.466 27.8019 138.857 27.5472 138.461 27.0377C138.093 26.5 137.909 25.9057 137.909 25.2547C137.909 24.5189 138.093 23.9245 138.461 23.4717C138.829 23.0189 139.296 22.5943 139.862 22.1981C140.513 21.7453 141.348 21.3632 142.367 21.0519C143.414 20.7123 144.588 20.5425 145.89 20.5425C147.051 20.5425 148.041 20.684 148.862 20.967C149.683 21.2217 150.362 21.6038 150.9 22.1132C151.635 22.7925 152.117 23.6274 152.343 24.6179C152.569 25.5802 152.683 26.7406 152.683 28.0991V39.9009C152.683 40.6085 152.782 41.1179 152.98 41.4292C153.206 41.7406 153.546 41.8962 153.999 41.8962C154.31 41.8962 154.607 41.8255 154.89 41.684C155.173 41.5425 155.513 41.316 155.909 41.0047L156.376 41.7264C155.782 42.1792 155.216 42.5613 154.678 42.8726C154.14 43.1557 153.418 43.2972 152.513 43.2972C151.692 43.2972 151.013 43.1557 150.475 42.8726C149.937 42.5896 149.527 42.1792 149.244 41.6415C148.989 41.0755 148.862 40.3679 148.862 39.5189C148.098 40.7925 147.178 41.7406 146.102 42.3632C145.055 42.9858 143.867 43.2972 142.536 43.2972ZM144.065 41.5991C144.999 41.5991 145.862 41.3302 146.654 40.7925C147.475 40.2547 148.211 39.4481 148.862 38.3726V30.0519C148.522 30.533 148.027 30.9434 147.376 31.283C146.725 31.5943 146.018 31.9198 145.253 32.2594C144.489 32.5708 143.753 32.9528 143.046 33.4057C142.367 33.8302 141.801 34.3962 141.348 35.1038C140.895 35.8113 140.668 36.7311 140.668 37.8632C140.668 38.9953 140.966 39.9009 141.56 40.5802C142.183 41.2594 143.018 41.5991 144.065 41.5991ZM179.103 12.9434V13.7925C178.141 13.8208 177.405 13.934 176.896 14.1321C176.415 14.3019 176.089 14.6415 175.919 15.1509C175.749 15.6321 175.665 16.3962 175.665 17.4434V38.5C175.665 39.5189 175.749 40.283 175.919 40.7925C176.089 41.3019 176.415 41.6415 176.896 41.8113C177.405 41.9528 178.141 42.0236 179.103 42.0236H182.202C183.532 42.0236 184.608 41.8821 185.429 41.5991C186.278 41.316 186.943 40.8774 187.424 40.283C187.933 39.6604 188.315 38.8396 188.57 37.8208C188.825 36.8019 189.023 35.5566 189.165 34.0849H190.141C190.056 34.9623 190.014 36.1226 190.014 37.566C190.014 38.1038 190.028 38.8821 190.056 39.9009C190.113 40.8915 190.198 41.9245 190.311 43C188.867 42.9434 187.24 42.9151 185.429 42.9151C183.617 42.8868 182.004 42.8726 180.589 42.8726C179.966 42.8726 179.16 42.8726 178.169 42.8726C177.207 42.8726 176.16 42.8868 175.028 42.9151C173.896 42.9151 172.749 42.9292 171.589 42.9575C170.429 42.9575 169.325 42.9717 168.278 43V42.1509C169.24 42.0943 169.962 41.9811 170.443 41.8113C170.952 41.6415 171.292 41.3019 171.462 40.7925C171.631 40.283 171.716 39.5189 171.716 38.5V17.4434C171.716 16.3962 171.631 15.6321 171.462 15.1509C171.292 14.6415 170.952 14.3019 170.443 14.1321C169.962 13.934 169.24 13.8208 168.278 13.7925V12.9434C168.872 12.9717 169.65 13 170.613 13.0283C171.575 13.0566 172.608 13.0708 173.712 13.0708C174.702 13.0708 175.679 13.0566 176.641 13.0283C177.631 13 178.452 12.9717 179.103 12.9434ZM198.712 43.2972C197.551 43.2972 196.547 43.0849 195.698 42.6604C194.849 42.2075 194.198 41.5849 193.745 40.7925C193.32 40 193.108 39.0802 193.108 38.033C193.108 36.7877 193.391 35.7689 193.957 34.9764C194.551 34.184 195.301 33.5472 196.207 33.066C197.113 32.5849 198.061 32.1887 199.051 31.8774C200.07 31.5377 201.033 31.2264 201.938 30.9434C202.844 30.6321 203.58 30.2783 204.146 29.8821C204.74 29.4858 205.037 28.9623 205.037 28.3113V25.6792C205.037 24.4906 204.853 23.5849 204.485 22.9623C204.146 22.3396 203.679 21.9292 203.084 21.7311C202.49 21.5047 201.825 21.3915 201.089 21.3915C200.382 21.3915 199.617 21.4906 198.797 21.6887C198.004 21.8868 197.367 22.2972 196.886 22.9198C197.424 23.033 197.891 23.316 198.287 23.7689C198.683 24.2217 198.882 24.8019 198.882 25.5094C198.882 26.217 198.655 26.783 198.202 27.2075C197.749 27.6038 197.169 27.8019 196.462 27.8019C195.641 27.8019 195.033 27.5472 194.636 27.0377C194.268 26.5 194.084 25.9057 194.084 25.2547C194.084 24.5189 194.268 23.9245 194.636 23.4717C195.004 23.0189 195.471 22.5943 196.037 22.1981C196.688 21.7453 197.523 21.3632 198.542 21.0519C199.589 20.7123 200.764 20.5425 202.066 20.5425C203.226 20.5425 204.216 20.684 205.037 20.967C205.858 21.2217 206.537 21.6038 207.075 22.1132C207.811 22.7925 208.292 23.6274 208.518 24.6179C208.745 25.5802 208.858 26.7406 208.858 28.0991V39.9009C208.858 40.6085 208.957 41.1179 209.155 41.4292C209.382 41.7406 209.721 41.8962 210.174 41.8962C210.485 41.8962 210.783 41.8255 211.066 41.684C211.349 41.5425 211.688 41.316 212.084 41.0047L212.551 41.7264C211.957 42.1792 211.391 42.5613 210.853 42.8726C210.316 43.1557 209.594 43.2972 208.688 43.2972C207.867 43.2972 207.188 43.1557 206.65 42.8726C206.113 42.5896 205.702 42.1792 205.419 41.6415C205.165 41.0755 205.037 40.3679 205.037 39.5189C204.273 40.7925 203.353 41.7406 202.278 42.3632C201.231 42.9858 200.042 43.2972 198.712 43.2972ZM200.24 41.5991C201.174 41.5991 202.037 41.3302 202.83 40.7925C203.65 40.2547 204.386 39.4481 205.037 38.3726V30.0519C204.698 30.533 204.202 30.9434 203.551 31.283C202.9 31.5943 202.193 31.9198 201.429 32.2594C200.665 32.5708 199.929 32.9528 199.221 33.4057C198.542 33.8302 197.976 34.3962 197.523 35.1038C197.07 35.8113 196.844 36.7311 196.844 37.8632C196.844 38.9953 197.141 39.9009 197.735 40.5802C198.358 41.2594 199.193 41.5991 200.24 41.5991ZM233.143 9.71698V38.3726C233.143 39.6462 233.369 40.5943 233.822 41.217C234.303 41.8113 235.152 42.1085 236.369 42.1085V43C235.492 42.9151 234.615 42.8726 233.737 42.8726C232.917 42.8726 232.124 42.9151 231.36 43C230.624 43.0849 229.945 43.2406 229.322 43.467V14.8113C229.322 13.5377 229.096 12.6038 228.643 12.0094C228.19 11.3868 227.341 11.0755 226.096 11.0755V10.184C227.001 10.2689 227.879 10.3113 228.728 10.3113C229.549 10.3113 230.327 10.2689 231.063 10.184C231.827 10.0708 232.52 9.91509 233.143 9.71698ZM224.228 20.5425C225.473 20.5425 226.634 20.8396 227.709 21.434C228.813 22.0283 229.549 23.0472 229.917 24.4906L229.365 24.9151C228.968 23.7264 228.346 22.8632 227.497 22.3255C226.676 21.7877 225.7 21.5189 224.568 21.5189C222.898 21.5189 221.497 22.3821 220.365 24.1085C219.261 25.8349 218.723 28.4953 218.751 32.0896C218.751 34.3821 218.964 36.2925 219.388 37.8208C219.841 39.3208 220.492 40.4528 221.341 41.217C222.218 41.9528 223.28 42.3208 224.525 42.3208C225.714 42.3208 226.789 41.8113 227.751 40.7925C228.714 39.7736 229.294 38.2736 229.492 36.2925L230.001 36.8868C229.775 39.0377 229.082 40.6934 227.921 41.8538C226.789 43.0142 225.247 43.5943 223.294 43.5943C221.539 43.5943 219.997 43.1698 218.667 42.3208C217.365 41.4717 216.36 40.1981 215.652 38.5C214.973 36.8019 214.634 34.6651 214.634 32.0896C214.634 29.5142 215.072 27.3774 215.95 25.6792C216.855 23.9528 218.03 22.6651 219.473 21.816C220.945 20.967 222.53 20.5425 224.228 20.5425ZM243.334 10.5236C244.07 10.5236 244.707 10.7925 245.244 11.3302C245.782 11.8679 246.051 12.5047 246.051 13.2406C246.051 13.9764 245.782 14.6132 245.244 15.1509C244.707 15.6887 244.07 15.9575 243.334 15.9575C242.598 15.9575 241.961 15.6887 241.424 15.1509C240.886 14.6132 240.617 13.9764 240.617 13.2406C240.617 12.5047 240.886 11.8679 241.424 11.3302C241.961 10.7925 242.598 10.5236 243.334 10.5236ZM245.542 20.6698V39.0519C245.542 40.2406 245.782 41.0472 246.263 41.4717C246.773 41.8962 247.608 42.1085 248.768 42.1085V43C248.287 42.9717 247.551 42.9434 246.56 42.9151C245.598 42.8585 244.622 42.8302 243.631 42.8302C242.669 42.8302 241.692 42.8585 240.702 42.9151C239.711 42.9434 238.976 42.9717 238.494 43V42.1085C239.655 42.1085 240.476 41.8962 240.957 41.4717C241.466 41.0472 241.721 40.2406 241.721 39.0519V25.7641C241.721 24.4906 241.494 23.5566 241.042 22.9623C240.589 22.3396 239.74 22.0283 238.494 22.0283V21.1368C239.4 21.2217 240.277 21.2641 241.126 21.2641C241.947 21.2641 242.726 21.2217 243.461 21.1368C244.226 21.0236 244.919 20.8679 245.542 20.6698ZM261.248 20.5425C263.738 20.5425 265.677 21.3066 267.064 22.8349C268.479 24.3349 269.186 26.684 269.186 29.8821H254.201L254.158 29.0755H265.111C265.168 27.6887 265.054 26.4151 264.771 25.2547C264.488 24.066 264.035 23.1179 263.413 22.4104C262.819 21.7028 262.04 21.3491 261.078 21.3491C259.776 21.3491 258.616 22 257.597 23.3019C256.606 24.6038 256.012 26.6698 255.814 29.5L255.941 29.6698C255.885 30.0943 255.842 30.5613 255.814 31.0708C255.785 31.5802 255.771 32.0896 255.771 32.5991C255.771 34.5236 256.083 36.1792 256.705 37.566C257.328 38.9528 258.135 40.0142 259.125 40.75C260.144 41.4575 261.191 41.8113 262.267 41.8113C263.116 41.8113 263.922 41.684 264.686 41.4292C265.451 41.1462 266.158 40.6934 266.809 40.0708C267.46 39.4481 268.026 38.6132 268.507 37.566L269.356 37.9057C269.045 38.8396 268.535 39.7453 267.828 40.6226C267.12 41.5 266.229 42.2217 265.153 42.7877C264.078 43.3255 262.833 43.5943 261.418 43.5943C259.38 43.5943 257.625 43.1274 256.153 42.1934C254.71 41.2594 253.592 39.9717 252.8 38.3302C252.035 36.6604 251.653 34.75 251.653 32.5991C251.653 30.1085 252.05 27.9717 252.842 26.1887C253.635 24.3774 254.752 22.9906 256.196 22.0283C257.639 21.0377 259.323 20.5425 261.248 20.5425ZM280.006 20.5425C281.138 20.5425 282.1 20.7264 282.893 21.0943C283.685 21.4623 284.265 21.8019 284.633 22.1132C285.567 22.8774 286.133 22.3679 286.331 20.5849H287.308C287.251 21.3774 287.209 22.3255 287.18 23.4292C287.152 24.5047 287.138 25.9623 287.138 27.8019H286.162C285.992 26.7547 285.695 25.7358 285.27 24.7453C284.874 23.7547 284.28 22.9481 283.487 22.3255C282.695 21.6745 281.662 21.3491 280.388 21.3491C279.397 21.3491 278.563 21.6321 277.883 22.1981C277.232 22.7358 276.907 23.5425 276.907 24.6179C276.907 25.467 277.162 26.2028 277.671 26.8255C278.18 27.4198 278.846 27.9858 279.666 28.5236C280.487 29.033 281.379 29.5991 282.341 30.2217C283.416 30.9009 284.393 31.5943 285.27 32.3019C286.147 33.0094 286.841 33.7877 287.35 34.6368C287.888 35.4858 288.157 36.4906 288.157 37.6509C288.157 38.9528 287.817 40.0425 287.138 40.9198C286.459 41.7972 285.567 42.4623 284.463 42.9151C283.388 43.3679 282.199 43.5943 280.897 43.5943C280.275 43.5943 279.68 43.5377 279.114 43.4245C278.577 43.3396 278.053 43.1981 277.544 43C277.261 42.8585 276.963 42.6887 276.652 42.4906C276.369 42.2925 276.086 42.0802 275.803 41.8538C275.52 41.6274 275.265 41.6415 275.039 41.8962C274.813 42.1226 274.643 42.5896 274.53 43.2972H273.553C273.61 42.3915 273.652 41.2877 273.68 39.9858C273.709 38.684 273.723 36.9575 273.723 34.8066H274.699C274.897 36.3915 275.18 37.7783 275.548 38.967C275.916 40.1557 276.497 41.0896 277.289 41.7689C278.081 42.4198 279.185 42.7453 280.6 42.7453C281.166 42.7453 281.732 42.6179 282.298 42.3632C282.893 42.1085 283.388 41.684 283.784 41.0896C284.18 40.4953 284.379 39.7028 284.379 38.7123C284.379 37.467 283.926 36.4481 283.02 35.6557C282.114 34.8632 280.968 34.0283 279.581 33.1509C278.563 32.5 277.6 31.8491 276.695 31.1981C275.817 30.5472 275.096 29.8113 274.53 28.9906C273.992 28.1698 273.723 27.1792 273.723 26.0189C273.723 24.7453 274.006 23.7123 274.572 22.9198C275.166 22.0991 275.945 21.5047 276.907 21.1368C277.869 20.7406 278.902 20.5425 280.006 20.5425Z" fill="#A71A22"/>
</svg>
